<svg width="200" height="200" version="1.1" xmlns="http://www.w3.org/2000/svg" desc="Created with imagetracer.js version 1.2.6" ><path fill="rgb(0,0,0)" stroke="rgb(0,0,0)" stroke-width="1" opacity="0" d="M 0 0 L 200 0 L 200 200 L 0 200 L 0 0 Z M 81 47 L 37 72 L 36 75 L 36 101 L 43 106 L 80 127 L 86 126 L 118 108 L 135 119 L 130 122 L 126 127 L 126 151 L 129 154 L 161 136 L 165 132 L 165 106 L 164 103 L 147 92 L 151 90 L 153 87 L 153 60 L 152 58 L 149 58 L 138 64 L 84 97 L 80 96 L 66 88 L 81 79 L 84 75 L 84 49 L 81 47 Z " /><path fill="rgb(5,97,239)" stroke="rgb(5,97,239)" stroke-width="1" opacity="0.9882352941176471" d="M 39.5 73 L 76.5 95 L 83 100.5 L 83 125.5 L 81.5 127 L 41.5 104 L 38 100.5 L 38 74.5 L 39.5 73 Z " /><path fill="rgb(244,216,166)" stroke="rgb(244,216,166)" stroke-width="1" opacity="0.7411764705882353" d="M 80.5 47 L 84 48.5 L 84 74.5 L 80.5 79 L 66 87.5 L 66.5 89 L 65 86 L 82 76.5 L 83 74.5 L 83 48 L 78.5 49 L 65.5 57 L 66.5 55 L 80.5 47 Z " /><path fill="rgb(244,216,166)" stroke="rgb(244,216,166)" stroke-width="1" opacity="0.7411764705882353" d="M 63.5 57 L 62.5 59 L 41.5 71 L 42.5 69 L 63.5 57 Z " /><path fill="rgb(244,216,166)" stroke="rgb(244,216,166)" stroke-width="1" opacity="0.7411764705882353" d="M 148.5 58 Q 152.3 57.3 153 59.5 L 153 86.5 L 150.5 90 L 147 91.5 L 164 102.5 L 165 105.5 L 165 131.5 L 160.5 136 L 128.5 154 L 126 150.5 L 126 126.5 L 129.5 122 L 135 118.5 L 117.5 108 L 93.5 122 L 94.5 120 L 115 106.5 Q 115.6 100.4 112 98.5 Q 114.6 95.6 114 89.5 L 113 83 L 110.5 83 L 86.5 96 L 87.5 94 L 148.5 58 Z M 118 78 L 117 81 L 117 105 L 137 117 Q 139 116 138 119 L 142 122 L 160 132 L 163 131 L 163 106 L 162 104 L 146 93 Q 143 94 144 92 L 126 80 L 118 78 Z M 115 96 L 114 99 L 115 99 L 115 96 Z " /><path fill="rgb(244,216,166)" stroke="rgb(244,216,166)" stroke-width="1" opacity="0.7411764705882353" d="M 36.5 74 L 37 100.5 L 36 100.5 L 36.5 74 Z " /><path fill="rgb(244,216,166)" stroke="rgb(244,216,166)" stroke-width="1" opacity="0.7411764705882353" d="M 77.5 94 L 78.5 96 L 77.5 94 Z " /><path fill="rgb(244,216,166)" stroke="rgb(244,216,166)" stroke-width="1" opacity="0.7411764705882353" d="M 84.5 96 L 84 97.5 L 83.5 99 L 82.5 97 L 84.5 96 Z " /><path fill="rgb(244,216,166)" stroke="rgb(244,216,166)" stroke-width="1" opacity="0.7411764705882353" d="M 41.5 104 L 42.5 106 L 41.5 104 Z " /><path fill="rgb(137,178,237)" stroke="rgb(137,178,237)" stroke-width="1" opacity="0.9176470588235294" d="M 80.5 48 L 83 48.5 L 83 74.5 L 80.5 78 L 65 86 L 66.5 89 L 83.5 99 L 85.5 96 L 113.5 82 L 113 83.5 L 114 93.5 L 112 98.5 Q 115.6 100.4 115 106.5 Q 100.4 118.4 82.5 127 L 83 125.5 L 83 100.5 L 79.5 97 L 39.5 73 L 38 74.5 L 38 100.5 L 40.5 104 L 37 101.5 L 37 73.5 L 38.5 72 L 47.5 68 L 80.5 48 Z " /><path fill="rgb(137,178,237)" stroke="rgb(137,178,237)" stroke-width="1" opacity="0.9176470588235294" d="M 114.5 96 L 115 98.5 L 114 98.5 L 114.5 96 Z " /><path fill="rgb(137,178,237)" stroke="rgb(137,178,237)" stroke-width="1" opacity="0.9176470588235294" d="M 42.5 104 L 72 121.5 L 70.5 121 L 46.5 108 L 42.5 104 Z " /><path fill="rgb(137,178,237)" stroke="rgb(137,178,237)" stroke-width="1" opacity="0.9176470588235294" d="M 73.5 122 L 79 125.5 L 77.5 126 L 73.5 122 Z " /><path fill="rgb(250,157,11)" stroke="rgb(250,157,11)" stroke-width="1" opacity="0.996078431372549" d="M 118 78 L 125.5 80 L 144 91.5 Q 143.3 93.8 145.5 93 L 162 103.5 L 163 105.5 L 163 130.5 L 159.5 132 L 141.5 122 L 138 118.5 Q 138.8 116.3 136.5 117 L 117 104.5 L 117 80.5 L 118 78 Z " /></svg>