<svg width="248" height="77" version="1.1" xmlns="http://www.w3.org/2000/svg" desc="Created with imagetracer.js version 1.2.6" ><path fill="rgb(40,59,111)" stroke="rgb(40,59,111)" stroke-width="1" opacity="0.03529411764705882" d="M 97.5 2 L 100 2.5 L 97.5 3 L 97.5 2 Z " /><path fill="rgb(40,59,111)" stroke="rgb(40,59,111)" stroke-width="1" opacity="0.03529411764705882" d="M 109.5 2 L 113 2.5 L 109.5 3 L 109.5 2 Z " /><path fill="rgb(40,59,111)" stroke="rgb(40,59,111)" stroke-width="1" opacity="0.03529411764705882" d="M 92.5 3 L 95 3.5 L 92.5 4 L 92.5 3 Z " /><path fill="rgb(40,59,111)" stroke="rgb(40,59,111)" stroke-width="1" opacity="0.03529411764705882" d="M 114.5 3 L 117 3.5 L 114.5 4 L 114.5 3 Z " /><path fill="rgb(40,59,111)" stroke="rgb(40,59,111)" stroke-width="1" opacity="0.03529411764705882" d="M 89.5 4 L 91 4.5 L 84.5 8 L 85.5 6 L 89.5 4 Z " /><path fill="rgb(40,59,111)" stroke="rgb(40,59,111)" stroke-width="1" opacity="0.03529411764705882" d="M 118.5 4 L 127 10.5 Q 127.8 13.1 124.5 12 L 124.5 11 L 126 10.5 L 118.5 5 L 118.5 4 Z " /><path fill="rgb(40,59,111)" stroke="rgb(40,59,111)" stroke-width="1" opacity="0.03529411764705882" d="M 82.5 8 L 81.5 10 Q 72.7 13.7 68 21.5 L 64.5 26 L 66 23.5 L 77.5 11 L 82.5 8 Z " /><path fill="rgb(40,59,111)" stroke="rgb(40,59,111)" stroke-width="1" opacity="0.03529411764705882" d="M 117.5 10 L 123 10.5 L 115.5 12 L 115.5 11 L 117.5 10 Z " /><path fill="rgb(40,59,111)" stroke="rgb(40,59,111)" stroke-width="1" opacity="0.03529411764705882" d="M 113.5 12 L 112.5 14 L 110 15.5 L 108.5 18 L 109 16.5 L 111.5 13 L 113.5 12 Z " /><path fill="rgb(40,59,111)" stroke="rgb(40,59,111)" stroke-width="1" opacity="0.03529411764705882" d="M 11.5 19 L 26.5 19 L 27 21.5 L 26 21.5 L 25.5 20 L 11.5 20 L 11.5 19 Z " /><path fill="rgb(40,59,111)" stroke="rgb(40,59,111)" stroke-width="1" opacity="0.03529411764705882" d="M 39.5 19 L 55 19.5 L 39 20 L 37.5 24 L 37 22.5 L 39.5 19 Z " /><path fill="rgb(40,59,111)" stroke="rgb(40,59,111)" stroke-width="1" opacity="0.03529411764705882" d="M 107.5 19 L 108 21.5 L 107 21.5 L 107.5 19 Z " /><path fill="rgb(40,59,111)" stroke="rgb(40,59,111)" stroke-width="1" opacity="0.03529411764705882" d="M 112 19 L 149.5 19 Q 150.5 19 150 23.5 L 149 23.5 L 148.5 20 L 113 20 L 112.5 22 L 112 19 Z " /><path fill="rgb(40,59,111)" stroke="rgb(40,59,111)" stroke-width="1" opacity="0.03529411764705882" d="M 219 19 L 231.5 19 L 232 20.5 L 230.5 20 L 220.5 20 L 220 21.5 L 219 21.5 L 219 19 Z " /><path fill="rgb(40,59,111)" stroke="rgb(40,59,111)" stroke-width="1" opacity="0.03529411764705882" d="M 54.5 22 L 55 24.5 L 54 24.5 L 54.5 22 Z " /><path fill="rgb(40,59,111)" stroke="rgb(40,59,111)" stroke-width="1" opacity="0.03529411764705882" d="M 27.5 23 L 28.5 40 L 32.5 33 L 32 34.5 L 28.5 42 L 27 39.5 L 27.5 23 Z " /><path fill="rgb(40,59,111)" stroke="rgb(40,59,111)" stroke-width="1" opacity="0.03529411764705882" d="M 106.5 23 L 107 27.5 L 106 27.5 L 106.5 23 Z " /><path fill="rgb(40,59,111)" stroke="rgb(40,59,111)" stroke-width="1" opacity="0.03529411764705882" d="M 111.5 23 L 112 25.5 L 111 25.5 L 111.5 23 Z " /><path fill="rgb(40,59,111)" stroke="rgb(40,59,111)" stroke-width="1" opacity="0.03529411764705882" d="M 218.5 23 L 219 26.5 L 218 26.5 L 218.5 23 Z " /><path fill="rgb(40,59,111)" stroke="rgb(40,59,111)" stroke-width="1" opacity="0.03529411764705882" d="M 230.5 23 L 231 26.5 L 230 26.5 L 230.5 23 Z " /><path fill="rgb(40,59,111)" stroke="rgb(40,59,111)" stroke-width="1" opacity="0.03529411764705882" d="M 9.5 24 L 10 28.5 L 9 28.5 L 9.5 24 Z " /><path fill="rgb(40,59,111)" stroke="rgb(40,59,111)" stroke-width="1" opacity="0.03529411764705882" d="M 36.5 25 L 36 26.5 L 35.5 28 L 35 26.5 L 36.5 25 Z " /><path fill="rgb(40,59,111)" stroke="rgb(40,59,111)" stroke-width="1" opacity="0.03529411764705882" d="M 148.5 25 L 149 28.5 L 147 29.5 L 148.5 25 Z " /><path fill="rgb(40,59,111)" stroke="rgb(40,59,111)" stroke-width="1" opacity="0.03529411764705882" d="M 53.5 26 L 54 28.5 L 53 28.5 L 53.5 26 Z " /><path fill="rgb(40,59,111)" stroke="rgb(40,59,111)" stroke-width="1" opacity="0.03529411764705882" d="M 63.5 27 L 62 29.5 L 56.5 36 Q 54.3 35.3 55 37.5 L 54 37.5 L 55.5 35 L 60 31.5 L 63.5 27 Z " /><path fill="rgb(40,59,111)" stroke="rgb(40,59,111)" stroke-width="1" opacity="0.03529411764705882" d="M 217.5 28 L 218 30.5 L 217 30.5 L 217.5 28 Z " /><path fill="rgb(40,59,111)" stroke="rgb(40,59,111)" stroke-width="1" opacity="0.03529411764705882" d="M 229.5 28 L 230 31.5 L 229 31.5 L 229.5 28 Z " /><path fill="rgb(40,59,111)" stroke="rgb(40,59,111)" stroke-width="1" opacity="0.03529411764705882" d="M 34.5 29 L 34 30.5 L 33.5 32 L 33 30.5 L 34.5 29 Z " /><path fill="rgb(40,59,111)" stroke="rgb(40,59,111)" stroke-width="1" opacity="0.03529411764705882" d="M 107.5 29 L 112 37.5 L 111 37.5 L 107 31.5 L 107.5 29 Z " /><path fill="rgb(40,59,111)" stroke="rgb(40,59,111)" stroke-width="1" opacity="0.03529411764705882" d="M 154.5 29 Q 166.8 27.1 172 31 L 172 33 Q 174.7 31.9 174 34.5 Q 177.6 37.4 176 45.5 L 175 45.5 Q 176.8 33.7 169.5 31 L 167.5 30 L 154.5 30 L 154.5 29 Z " /><path fill="rgb(40,59,111)" stroke="rgb(40,59,111)" stroke-width="1" opacity="0.03529411764705882" d="M 190.5 29 Q 206.3 26.3 211 34.5 L 210.5 36 L 207.5 32 L 203.5 30 L 190.5 30 L 188.5 31 L 188.5 30 L 190.5 29 Z " /><path fill="rgb(40,59,111)" stroke="rgb(40,59,111)" stroke-width="1" opacity="0.03529411764705882" d="M 232.5 29 Q 241.9 27.1 245 31.5 L 246 34.5 L 245 34.5 L 244 31 Q 240.7 28.9 232.5 30 L 231 30.5 L 232.5 29 Z " /><path fill="rgb(40,59,111)" stroke="rgb(40,59,111)" stroke-width="1" opacity="0.03529411764705882" d="M 8.5 30 L 9 32.5 L 8 32.5 L 8.5 30 Z " /><path fill="rgb(40,59,111)" stroke="rgb(40,59,111)" stroke-width="1" opacity="0.03529411764705882" d="M 52.5 31 L 53 34.5 L 52 34.5 L 52.5 31 Z " /><path fill="rgb(40,59,111)" stroke="rgb(40,59,111)" stroke-width="1" opacity="0.03529411764705882" d="M 150.5 31 L 149.5 33 L 146 35.5 L 144.5 38 L 145 36.5 L 148.5 32 L 150.5 31 Z " /><path fill="rgb(40,59,111)" stroke="rgb(40,59,111)" stroke-width="1" opacity="0.03529411764705882" d="M 186.5 31 L 185.5 33 L 186.5 31 Z " /><path fill="rgb(40,59,111)" stroke="rgb(40,59,111)" stroke-width="1" opacity="0.03529411764705882" d="M 42.5 32 L 42 33.5 L 40.5 37 L 41 35.5 L 42.5 32 Z " /><path fill="rgb(40,59,111)" stroke="rgb(40,59,111)" stroke-width="1" opacity="0.03529411764705882" d="M 121.5 32 L 122 34.5 L 121 34.5 L 121.5 32 Z " /><path fill="rgb(40,59,111)" stroke="rgb(40,59,111)" stroke-width="1" opacity="0.03529411764705882" d="M 216.5 32 L 217 35.5 L 216 35.5 L 216.5 32 Z " /><path fill="rgb(40,59,111)" stroke="rgb(40,59,111)" stroke-width="1" opacity="0.03529411764705882" d="M 18.5 33 L 19 35.5 L 18 35.5 L 18.5 33 Z " /><path fill="rgb(40,59,111)" stroke="rgb(40,59,111)" stroke-width="1" opacity="0.03529411764705882" d="M 134.5 33 L 135 36.5 L 133.5 40 L 133 37.5 L 134.5 33 Z " /><path fill="rgb(40,59,111)" stroke="rgb(40,59,111)" stroke-width="1" opacity="0.03529411764705882" d="M 7.5 34 L 8 37.5 L 7 37.5 L 7.5 34 Z " /><path fill="rgb(40,59,111)" stroke="rgb(40,59,111)" stroke-width="1" opacity="0.03529411764705882" d="M 181.5 35 L 182 36.5 L 179.5 40 L 179 38.5 L 181.5 35 Z " /><path fill="rgb(40,59,111)" stroke="rgb(40,59,111)" stroke-width="1" opacity="0.03529411764705882" d="M 159.5 36 L 163 37.5 L 161.5 37 L 156 39.5 L 156.5 41 L 163.5 41 L 163.5 42 L 155.5 42 L 155 39.5 L 159.5 36 Z " /><path fill="rgb(40,59,111)" stroke="rgb(40,59,111)" stroke-width="1" opacity="0.03529411764705882" d="M 17.5 37 L 18 41.5 L 17 41.5 L 17.5 37 Z " /><path fill="rgb(40,59,111)" stroke="rgb(40,59,111)" stroke-width="1" opacity="0.03529411764705882" d="M 120.5 37 L 121 39.5 L 120 39.5 L 120.5 37 Z " /><path fill="rgb(40,59,111)" stroke="rgb(40,59,111)" stroke-width="1" opacity="0.03529411764705882" d="M 195.5 37 L 199 37.5 L 195.5 38 L 195.5 37 Z " /><path fill="rgb(40,59,111)" stroke="rgb(40,59,111)" stroke-width="1" opacity="0.03529411764705882" d="M 211.5 37 L 212 41 L 209 40.5 L 211 40 L 211.5 37 Z " /><path fill="rgb(40,59,111)" stroke="rgb(40,59,111)" stroke-width="1" opacity="0.03529411764705882" d="M 39.5 38 L 41 40.5 L 40 40.5 L 39.5 38 Z " /><path fill="rgb(40,59,111)" stroke="rgb(40,59,111)" stroke-width="1" opacity="0.03529411764705882" d="M 193.5 38 L 192 40.5 L 190.5 43 L 191 41.5 L 193.5 38 Z " /><path fill="rgb(40,59,111)" stroke="rgb(40,59,111)" stroke-width="1" opacity="0.03529411764705882" d="M 215.5 38 L 216 40.5 L 214.5 46 L 214 41.5 L 215.5 38 Z " /><path fill="rgb(40,59,111)" stroke="rgb(40,59,111)" stroke-width="1" opacity="0.03529411764705882" d="M 230.5 38 L 227.5 42 L 230.5 38 Z " /><path fill="rgb(40,59,111)" stroke="rgb(40,59,111)" stroke-width="1" opacity="0.03529411764705882" d="M 232.5 38 Q 235.5 37.1 234 41.5 L 233 41.5 L 232.5 38 Z " /><path fill="rgb(40,59,111)" stroke="rgb(40,59,111)" stroke-width="1" opacity="0.03529411764705882" d="M 6.5 39 L 7 41.5 L 6 41.5 L 6.5 39 Z " /><path fill="rgb(40,59,111)" stroke="rgb(40,59,111)" stroke-width="1" opacity="0.03529411764705882" d="M 245.5 39 L 246 41.5 L 245 41.5 L 245.5 39 Z " /><path fill="rgb(40,59,111)" stroke="rgb(40,59,111)" stroke-width="1" opacity="0.03529411764705882" d="M 38.5 40 L 40 43.5 L 39 43.5 L 38.5 42 L 29.5 59 L 28 58.5 L 30 58 L 38.5 40 Z " /><path fill="rgb(40,59,111)" stroke="rgb(40,59,111)" stroke-width="1" opacity="0.03529411764705882" d="M 53.5 40 Q 56.1 39.2 55 42.5 L 54 42.5 L 53.5 40 Z " /><path fill="rgb(40,59,111)" stroke="rgb(40,59,111)" stroke-width="1" opacity="0.03529411764705882" d="M 111.5 40 L 112 41.5 L 109 43.5 L 111.5 40 Z " /><path fill="rgb(40,59,111)" stroke="rgb(40,59,111)" stroke-width="1" opacity="0.03529411764705882" d="M 201.5 40 L 204 41.5 L 202.5 42 L 201.5 40 Z " /><path fill="rgb(40,59,111)" stroke="rgb(40,59,111)" stroke-width="1" opacity="0.03529411764705882" d="M 50.5 41 L 51 43.5 L 50 43.5 L 50.5 41 Z " /><path fill="rgb(40,59,111)" stroke="rgb(40,59,111)" stroke-width="1" opacity="0.03529411764705882" d="M 119.5 41 L 120 43.5 L 119 43.5 L 119.5 41 Z " /><path fill="rgb(40,59,111)" stroke="rgb(40,59,111)" stroke-width="1" opacity="0.03529411764705882" d="M 142.5 41 L 143 50.5 L 147.5 57 L 149 57.5 L 147.5 58 Q 139.6 53.8 142.5 41 Z " /><path fill="rgb(40,59,111)" stroke="rgb(40,59,111)" stroke-width="1" opacity="0.03529411764705882" d="M 132.5 42 L 133 45.5 L 132 45.5 L 132.5 42 Z " /><path fill="rgb(40,59,111)" stroke="rgb(40,59,111)" stroke-width="1" opacity="0.03529411764705882" d="M 5.5 43 L 6 46.5 L 5 46.5 L 5.5 43 Z " /><path fill="rgb(40,59,111)" stroke="rgb(40,59,111)" stroke-width="1" opacity="0.03529411764705882" d="M 16.5 43 L 17 45.5 L 16 45.5 L 16.5 43 Z " /><path fill="rgb(40,59,111)" stroke="rgb(40,59,111)" stroke-width="1" opacity="0.03529411764705882" d="M 226.5 43 L 227 45.5 L 226 45.5 L 226.5 43 Z " /><path fill="rgb(40,59,111)" stroke="rgb(40,59,111)" stroke-width="1" opacity="0.03529411764705882" d="M 232.5 43 L 233 46.5 L 232 46.5 L 232.5 43 Z " /><path fill="rgb(40,59,111)" stroke="rgb(40,59,111)" stroke-width="1" opacity="0.03529411764705882" d="M 244.5 43 L 245 46.5 L 244 46.5 L 244.5 43 Z " /><path fill="rgb(40,59,111)" stroke="rgb(40,59,111)" stroke-width="1" opacity="0.03529411764705882" d="M 56.5 44 L 57.5 46 L 56.5 44 Z " /><path fill="rgb(40,59,111)" stroke="rgb(40,59,111)" stroke-width="1" opacity="0.03529411764705882" d="M 189.5 44 Q 188.9 49.1 192 50.5 L 189 48.5 L 189.5 44 Z " /><path fill="rgb(40,59,111)" stroke="rgb(40,59,111)" stroke-width="1" opacity="0.03529411764705882" d="M 19.5 45 L 20 58 L 22 58.5 L 20.5 59 L 19 57.5 L 19.5 45 Z " /><path fill="rgb(40,59,111)" stroke="rgb(40,59,111)" stroke-width="1" opacity="0.03529411764705882" d="M 177.5 45 L 178 48.5 L 177 48.5 L 177.5 45 Z " /><path fill="rgb(40,59,111)" stroke="rgb(40,59,111)" stroke-width="1" opacity="0.03529411764705882" d="M 199.5 46 L 205 46.5 L 199.5 47 L 199.5 46 Z " /><path fill="rgb(40,59,111)" stroke="rgb(40,59,111)" stroke-width="1" opacity="0.03529411764705882" d="M 58.5 47 L 59 49.5 L 58 49.5 L 58.5 47 Z " /><path fill="rgb(40,59,111)" stroke="rgb(40,59,111)" stroke-width="1" opacity="0.03529411764705882" d="M 105.5 47 L 103.5 50 L 105.5 47 Z " /><path fill="rgb(40,59,111)" stroke="rgb(40,59,111)" stroke-width="1" opacity="0.03529411764705882" d="M 154 47 L 175 47.5 L 155 48 L 154.5 50 L 154 47 Z " /><path fill="rgb(40,59,111)" stroke="rgb(40,59,111)" stroke-width="1" opacity="0.03529411764705882" d="M 208.5 47 Q 211.8 45.9 211 48.5 L 209.5 48 L 208.5 47 Z " /><path fill="rgb(40,59,111)" stroke="rgb(40,59,111)" stroke-width="1" opacity="0.03529411764705882" d="M 213.5 47 L 214 49.5 L 213 49.5 L 213.5 47 Z " /><path fill="rgb(40,59,111)" stroke="rgb(40,59,111)" stroke-width="1" opacity="0.03529411764705882" d="M 15.5 48 L 16 51.5 L 15 51.5 L 15.5 48 Z " /><path fill="rgb(40,59,111)" stroke="rgb(40,59,111)" stroke-width="1" opacity="0.03529411764705882" d="M 198.5 48 L 196.5 51 L 195 50.5 L 198.5 48 Z " /><path fill="rgb(40,59,111)" stroke="rgb(40,59,111)" stroke-width="1" opacity="0.03529411764705882" d="M 162.5 49 L 169 49.5 Q 162.3 48.8 159.5 52 L 159.5 51 L 162.5 49 Z " /><path fill="rgb(40,59,111)" stroke="rgb(40,59,111)" stroke-width="1" opacity="0.03529411764705882" d="M 231.5 49 L 232 51.5 L 231 51.5 L 231.5 49 Z " /><path fill="rgb(40,59,111)" stroke="rgb(40,59,111)" stroke-width="1" opacity="0.03529411764705882" d="M 243.5 49 L 244 51.5 L 243 51.5 L 243.5 49 Z " /><path fill="rgb(40,59,111)" stroke="rgb(40,59,111)" stroke-width="1" opacity="0.03529411764705882" d="M 37.5 50 L 38 52.5 L 37 52.5 L 37.5 50 Z " /><path fill="rgb(40,59,111)" stroke="rgb(40,59,111)" stroke-width="1" opacity="0.03529411764705882" d="M 48.5 50 L 49 52.5 L 48 52.5 L 48.5 50 Z " /><path fill="rgb(40,59,111)" stroke="rgb(40,59,111)" stroke-width="1" opacity="0.03529411764705882" d="M 117.5 50 L 118 53.5 L 117 53.5 L 117.5 50 Z " /><path fill="rgb(40,59,111)" stroke="rgb(40,59,111)" stroke-width="1" opacity="0.03529411764705882" d="M 170.5 50 Q 175.3 48.3 174 52.5 L 167.5 58 L 167.5 57 L 173 52.5 Q 173.8 49.9 170.5 51 L 170.5 50 Z " /><path fill="rgb(40,59,111)" stroke="rgb(40,59,111)" stroke-width="1" opacity="0.03529411764705882" d="M 102.5 51 L 100.5 54 L 102.5 51 Z " /><path fill="rgb(40,59,111)" stroke="rgb(40,59,111)" stroke-width="1" opacity="0.03529411764705882" d="M 212.5 51 L 213 54.5 L 212 54.5 L 212.5 51 Z " /><path fill="rgb(40,59,111)" stroke="rgb(40,59,111)" stroke-width="1" opacity="0.03529411764705882" d="M 130.5 52 L 131 54.5 L 130 54.5 L 130.5 52 Z " /><path fill="rgb(40,59,111)" stroke="rgb(40,59,111)" stroke-width="1" opacity="0.03529411764705882" d="M 208.5 52 L 203.5 58 L 202 57.5 L 208.5 52 Z " /><path fill="rgb(40,59,111)" stroke="rgb(40,59,111)" stroke-width="1" opacity="0.03529411764705882" d="M 224.5 52 L 225 54.5 L 224 54.5 L 224.5 52 Z " /><path fill="rgb(40,59,111)" stroke="rgb(40,59,111)" stroke-width="1" opacity="0.03529411764705882" d="M 3.5 53 L 4 56.5 L 3 56.5 L 3.5 53 Z " /><path fill="rgb(40,59,111)" stroke="rgb(40,59,111)" stroke-width="1" opacity="0.03529411764705882" d="M 14.5 53 L 15 55.5 L 14 55.5 L 14.5 53 Z " /><path fill="rgb(40,59,111)" stroke="rgb(40,59,111)" stroke-width="1" opacity="0.03529411764705882" d="M 179.5 53 L 183.5 58 L 180 55.5 L 179.5 53 Z " /><path fill="rgb(40,59,111)" stroke="rgb(40,59,111)" stroke-width="1" opacity="0.03529411764705882" d="M 230.5 53 L 231 55.5 L 230 55.5 L 230.5 53 Z " /><path fill="rgb(40,59,111)" stroke="rgb(40,59,111)" stroke-width="1" opacity="0.03529411764705882" d="M 242.5 53 L 243 56.5 L 242 56.5 L 242.5 53 Z " /><path fill="rgb(40,59,111)" stroke="rgb(40,59,111)" stroke-width="1" opacity="0.03529411764705882" d="M 36.5 55 L 37 58.5 L 36 58.5 L 36.5 55 Z " /><path fill="rgb(40,59,111)" stroke="rgb(40,59,111)" stroke-width="1" opacity="0.03529411764705882" d="M 99.5 55 L 94.5 61 L 99.5 55 Z " /><path fill="rgb(40,59,111)" stroke="rgb(40,59,111)" stroke-width="1" opacity="0.03529411764705882" d="M 129.5 56 L 130 57.5 L 128 58.5 L 129.5 56 Z " /><path fill="rgb(40,59,111)" stroke="rgb(40,59,111)" stroke-width="1" opacity="0.03529411764705882" d="M 211.5 56 L 213 58.5 L 211 59 L 211.5 56 Z " /><path fill="rgb(40,59,111)" stroke="rgb(40,59,111)" stroke-width="1" opacity="0.03529411764705882" d="M 223.5 56 L 224 57.5 L 222 58.5 L 223.5 56 Z " /><path fill="rgb(40,59,111)" stroke="rgb(40,59,111)" stroke-width="1" opacity="0.03529411764705882" d="M 116.5 57 L 117.5 59 Q 114.7 59.7 116.5 57 Z " /><path fill="rgb(40,59,111)" stroke="rgb(40,59,111)" stroke-width="1" opacity="0.03529411764705882" d="M 57.5 59 L 58 60.5 L 56 61.5 L 57.5 59 Z " /><path fill="rgb(40,59,111)" stroke="rgb(40,59,111)" stroke-width="1" opacity="0.03529411764705882" d="M 153.5 59 L 163 59.5 L 153.5 60 L 153.5 59 Z " /><path fill="rgb(40,59,111)" stroke="rgb(40,59,111)" stroke-width="1" opacity="0.03529411764705882" d="M 188.5 59 L 198 59.5 L 188.5 60 L 188.5 59 Z " /><path fill="rgb(40,59,111)" stroke="rgb(40,59,111)" stroke-width="1" opacity="0.03529411764705882" d="M 92.5 62 L 87.5 68 L 82.5 71 L 83.5 69 L 92.5 62 Z " /><path fill="rgb(40,59,111)" stroke="rgb(40,59,111)" stroke-width="1" opacity="0.03529411764705882" d="M 55.5 63 L 54.5 65 L 55.5 63 Z " /><path fill="rgb(40,59,111)" stroke="rgb(40,59,111)" stroke-width="1" opacity="0.03529411764705882" d="M 100.5 63 Q 104.7 61.7 103 66.5 L 102 66.5 Q 103.1 63.2 100.5 64 L 100.5 63 Z " /><path fill="rgb(40,59,111)" stroke="rgb(40,59,111)" stroke-width="1" opacity="0.03529411764705882" d="M 117.5 63 L 118 65 Q 120.7 63.9 120 66.5 L 121 68.5 L 119 69.5 L 119 67.5 Q 119.7 64.9 117 66 L 117.5 63 Z " /><path fill="rgb(40,59,111)" stroke="rgb(40,59,111)" stroke-width="1" opacity="0.03529411764705882" d="M 125.5 63 L 127 65.5 L 125 66 L 125.5 63 Z " /><path fill="rgb(40,59,111)" stroke="rgb(40,59,111)" stroke-width="1" opacity="0.03529411764705882" d="M 152 63 Q 155.8 61.5 155 64.5 L 155.5 66 Q 150.3 64.3 152 69.5 L 151 69.5 L 150 65.5 L 152 65.5 L 152 63 Z " /><path fill="rgb(40,59,111)" stroke="rgb(40,59,111)" stroke-width="1" opacity="0.03529411764705882" d="M 160.5 63 L 161 64.5 L 158.5 66 L 158.5 65 Q 161 65.7 160.5 63 Z " /><path fill="rgb(40,59,111)" stroke="rgb(40,59,111)" stroke-width="1" opacity="0.03529411764705882" d="M 166 63 Q 169.8 61.5 169 64.5 L 169.5 66 Q 167.3 66.8 168 64.5 L 166 65.5 Q 164.8 71.6 167.5 71 Q 168.8 68.8 170 71.5 L 167.5 72 L 165.5 71 L 164.5 72 L 156.5 72 L 156.5 71 Q 159.8 72.1 159 69.5 L 160 69.5 L 160.5 71 L 162.5 70 L 165 71 L 166 63 Z " /><path fill="rgb(40,59,111)" stroke="rgb(40,59,111)" stroke-width="1" opacity="0.03529411764705882" d="M 187.5 63 L 189 65.5 L 187 64.5 L 187.5 63 Z " /><path fill="rgb(40,59,111)" stroke="rgb(40,59,111)" stroke-width="1" opacity="0.03529411764705882" d="M 223.5 63 L 225 65.5 L 223 64.5 L 223.5 63 Z " /><path fill="rgb(40,59,111)" stroke="rgb(40,59,111)" stroke-width="1" opacity="0.03529411764705882" d="M 114.5 64 L 113.5 66 L 114.5 64 Z " /><path fill="rgb(40,59,111)" stroke="rgb(40,59,111)" stroke-width="1" opacity="0.03529411764705882" d="M 52.5 65 L 51.5 67 L 52.5 65 Z " /><path fill="rgb(40,59,111)" stroke="rgb(40,59,111)" stroke-width="1" opacity="0.03529411764705882" d="M 94.5 65 L 94 66.5 L 93.5 69 L 93 66.5 L 94.5 65 Z " /><path fill="rgb(40,59,111)" stroke="rgb(40,59,111)" stroke-width="1" opacity="0.03529411764705882" d="M 98.5 65 Q 100.8 64.3 100 66.5 L 98.5 65 Z " /><path fill="rgb(40,59,111)" stroke="rgb(40,59,111)" stroke-width="1" opacity="0.03529411764705882" d="M 128 65 L 132 65.5 L 127.5 68 L 128 66.5 L 128 65 Z " /><path fill="rgb(40,59,111)" stroke="rgb(40,59,111)" stroke-width="1" opacity="0.03529411764705882" d="M 139.5 65 L 141 69 Q 138 68 139 71 L 141 71.5 L 139.5 72 L 138 68 L 140 67.5 L 139.5 65 Z " /><path fill="rgb(40,59,111)" stroke="rgb(40,59,111)" stroke-width="1" opacity="0.03529411764705882" d="M 142.5 65 L 145.5 66 L 147.5 65 L 147.5 66 Q 144.1 65.1 146 70.5 L 146.5 72 L 144.5 72 L 143 71.5 L 145 71 L 145 67 L 143.5 67 L 142.5 65 Z " /><path fill="rgb(40,59,111)" stroke="rgb(40,59,111)" stroke-width="1" opacity="0.03529411764705882" d="M 173.5 65 L 176 65.5 L 174.5 68 L 173.5 65 Z " /><path fill="rgb(40,59,111)" stroke="rgb(40,59,111)" stroke-width="1" opacity="0.03529411764705882" d="M 182.5 65 Q 185 66 184 70.5 L 180.5 72 L 180.5 71 Q 185.1 72.3 183 66.5 L 182.5 65 Z " /><path fill="rgb(40,59,111)" stroke="rgb(40,59,111)" stroke-width="1" opacity="0.03529411764705882" d="M 191 65 L 194 65.5 Q 191 66.8 192 71 L 194 71.5 L 192.5 72 L 190.5 71 L 188.5 72 L 188.5 71 L 191 69.5 L 191 65 Z " /><path fill="rgb(40,59,111)" stroke="rgb(40,59,111)" stroke-width="1" opacity="0.03529411764705882" d="M 196.5 65 L 198.5 66 L 200 65.5 L 197.5 67 L 196.5 65 Z " /><path fill="rgb(40,59,111)" stroke="rgb(40,59,111)" stroke-width="1" opacity="0.03529411764705882" d="M 202.5 65 Q 204.8 64.3 204 66.5 L 202.5 65 Z " /><path fill="rgb(40,59,111)" stroke="rgb(40,59,111)" stroke-width="1" opacity="0.03529411764705882" d="M 219.5 65 L 220.5 67 L 219.5 65 Z " /><path fill="rgb(40,59,111)" stroke="rgb(40,59,111)" stroke-width="1" opacity="0.03529411764705882" d="M 227.5 65 Q 229.8 64.3 229 66.5 L 227.5 65 Z " /><path fill="rgb(40,59,111)" stroke="rgb(40,59,111)" stroke-width="1" opacity="0.03529411764705882" d="M 233.5 65 L 237 65.5 L 233.5 66 L 233.5 65 Z " /><path fill="rgb(40,59,111)" stroke="rgb(40,59,111)" stroke-width="1" opacity="0.03529411764705882" d="M 238.5 65 Q 241.8 63.9 241 66.5 L 239.5 66 L 238.5 65 Z " /><path fill="rgb(40,59,111)" stroke="rgb(40,59,111)" stroke-width="1" opacity="0.03529411764705882" d="M 38 66 L 40 66.5 L 39.5 69 L 38 66 Z " /><path fill="rgb(40,59,111)" stroke="rgb(40,59,111)" stroke-width="1" opacity="0.03529411764705882" d="M 43.5 67 L 48 67.5 L 43.5 68 L 43.5 67 Z " /><path fill="rgb(40,59,111)" stroke="rgb(40,59,111)" stroke-width="1" opacity="0.03529411764705882" d="M 130.5 67 L 130 68.5 L 131 71.5 L 129.5 71 L 128 70.5 L 130.5 67 Z " /><path fill="rgb(40,59,111)" stroke="rgb(40,59,111)" stroke-width="1" opacity="0.03529411764705882" d="M 162.5 67 Q 164.8 66.3 164 68.5 L 162.5 67 Z " /><path fill="rgb(40,59,111)" stroke="rgb(40,59,111)" stroke-width="1" opacity="0.03529411764705882" d="M 177.5 67 L 181 67.5 L 178 68 L 179 71.5 L 177 70.5 L 176 68.5 L 177.5 67 Z " /><path fill="rgb(40,59,111)" stroke="rgb(40,59,111)" stroke-width="1" opacity="0.03529411764705882" d="M 200.5 67 L 202 67.5 L 200 68 L 199.5 70 L 199 68.5 L 200.5 67 Z " /><path fill="rgb(40,59,111)" stroke="rgb(40,59,111)" stroke-width="1" opacity="0.03529411764705882" d="M 205 67 Q 208 65.8 207 69.5 L 205 68.5 L 205 67 Z " /><path fill="rgb(40,59,111)" stroke="rgb(40,59,111)" stroke-width="1" opacity="0.03529411764705882" d="M 211.5 67 Q 213.8 66.3 213 68.5 L 211.5 67 Z " /><path fill="rgb(40,59,111)" stroke="rgb(40,59,111)" stroke-width="1" opacity="0.03529411764705882" d="M 225.5 67 Q 227.8 66.3 227 68.5 L 225.5 67 Z " /><path fill="rgb(40,59,111)" stroke="rgb(40,59,111)" stroke-width="1" opacity="0.03529411764705882" d="M 231.5 67 Q 234.5 68.5 231.5 70 Q 229.3 70.8 230 68.5 L 231.5 67 Z " /><path fill="rgb(40,59,111)" stroke="rgb(40,59,111)" stroke-width="1" opacity="0.03529411764705882" d="M 101.5 68 L 104 69.5 L 102 70.5 L 104 71.5 L 99.5 72 L 97.5 72 L 95 71.5 L 98.5 70 L 101 71 L 101.5 68 Z " /><path fill="rgb(40,59,111)" stroke="rgb(40,59,111)" stroke-width="1" opacity="0.03529411764705882" d="M 116.5 68 L 118 71.5 L 115.5 72 L 113.5 71 L 107 72 L 107.5 69 L 108 71 Q 110.7 72.1 110 69.5 L 111 69.5 Q 110.3 71.8 112.5 71 L 114.5 71 Q 117.4 71.7 116.5 68 Z " /><path fill="rgb(40,59,111)" stroke="rgb(40,59,111)" stroke-width="1" opacity="0.03529411764705882" d="M 124.5 68 L 126 71.5 Q 124.8 74.3 123.5 72 L 119 71.5 L 124 71 L 124.5 68 Z " /><path fill="rgb(40,59,111)" stroke="rgb(40,59,111)" stroke-width="1" opacity="0.03529411764705882" d="M 234.5 68 L 236 71.5 L 235 71.5 L 234.5 68 Z " /><path fill="rgb(40,59,111)" stroke="rgb(40,59,111)" stroke-width="1" opacity="0.03529411764705882" d="M 239.5 68 L 239 69.5 L 237.5 72 L 238 70.5 L 239.5 68 Z " /><path fill="rgb(40,59,111)" stroke="rgb(40,59,111)" stroke-width="1" opacity="0.03529411764705882" d="M 173.5 69 L 174 71 L 176 71.5 L 172.5 72 L 173 70.5 L 173.5 69 Z " /><path fill="rgb(40,59,111)" stroke="rgb(40,59,111)" stroke-width="1" opacity="0.03529411764705882" d="M 197.5 69 L 199 71.5 L 196.5 72 L 195 71.5 L 197 71 L 197.5 69 Z " /><path fill="rgb(40,59,111)" stroke="rgb(40,59,111)" stroke-width="1" opacity="0.03529411764705882" d="M 208.5 69 L 209.5 71 L 211 70.5 Q 211.9 73.9 206.5 72 L 206.5 71 Q 209 71.7 208.5 69 Z " /><path fill="rgb(40,59,111)" stroke="rgb(40,59,111)" stroke-width="1" opacity="0.03529411764705882" d="M 214.5 69 L 215 71 L 217 71.5 L 215.5 72 L 213.5 72 L 212 71.5 L 214 71 L 214.5 69 Z " /><path fill="rgb(40,59,111)" stroke="rgb(40,59,111)" stroke-width="1" opacity="0.03529411764705882" d="M 222.5 69 L 223 71 L 225 71.5 L 223.5 72 L 221.5 72 L 220 71.5 L 222 71 L 222.5 69 Z " /><path fill="rgb(40,59,111)" stroke="rgb(40,59,111)" stroke-width="1" opacity="0.03529411764705882" d="M 153.5 70 L 154.5 72 L 153.5 70 Z " /><path fill="rgb(40,59,111)" stroke="rgb(40,59,111)" stroke-width="1" opacity="0.03529411764705882" d="M 202.5 70 L 205 71.5 L 203.5 72 L 201 71.5 L 202.5 70 Z " /><path fill="rgb(40,59,111)" stroke="rgb(40,59,111)" stroke-width="1" opacity="0.03529411764705882" d="M 228.5 70 L 232 71.5 L 228 72 L 228.5 70 Z " /><path fill="rgb(40,59,111)" stroke="rgb(40,59,111)" stroke-width="1" opacity="0.03529411764705882" d="M 43.5 71 L 44.5 73 L 43.5 71 Z " /><path fill="rgb(40,59,111)" stroke="rgb(40,59,111)" stroke-width="1" opacity="0.03529411764705882" d="M 92.5 71 L 93 73.5 L 92 73.5 L 92.5 71 Z " /><path fill="rgb(40,59,111)" stroke="rgb(40,59,111)" stroke-width="1" opacity="0.03529411764705882" d="M 127.5 72 L 126.5 74 L 127.5 72 Z " /><path fill="rgb(40,59,111)" stroke="rgb(40,59,111)" stroke-width="1" opacity="0.03529411764705882" d="M 233.5 72 L 232.5 74 L 233.5 72 Z " /><path fill="rgb(40,59,111)" stroke="rgb(40,59,111)" stroke-width="1" opacity="0.03529411764705882" d="M 68.5 75 L 71 75.5 L 68.5 76 L 68.5 75 Z " /><path fill="rgb(40,59,111)" stroke="rgb(40,59,111)" stroke-width="1" opacity="0.03529411764705882" d="M 59.5 76 L 65 76.5 L 59.5 77 L 59.5 76 Z " /><path fill="rgb(0,0,0)" stroke="rgb(0,0,0)" stroke-width="1" opacity="0" d="M 0 0 L 247.5 0 L 248 0.5 L 248 77 L 65 76.5 Q 89 72.5 100 55.5 L 106 46 L 108 46 Q 106.9 43.3 109.5 44 L 112 40 L 53 40.5 L 54 43 Q 56.7 41.9 56 44.5 L 58 46.5 L 59 55.5 L 53.5 65 Q 50 69 40.5 67 L 38 66 L 39.5 69 L 42.5 71 L 48.5 75 L 59 76.5 L 0 77 L 0 0 Z M 98 2 L 90 4 L 78 11 Q 67 19 60 32 L 54 37 L 55 38 L 112 38 L 107 29 Q 106 20 110 16 L 118 11 Q 123 10 125 12 Q 128 13 127 11 Q 119 -1 98 2 Z M 11 19 L 9 25 L 9 30 L 3 54 L 3 59 L 14 59 L 19 36 L 19 58 L 21 59 L 30 59 L 40 38 L 41 38 L 36 56 L 36 59 L 47 59 L 55 25 L 55 19 L 40 19 L 29 40 L 28 24 L 27 23 L 27 19 L 11 19 Z M 112 19 L 111 24 L 111 30 L 122 30 L 116 58 L 117 59 L 129 59 L 131 55 L 133 41 L 135 37 L 135 30 L 148 30 L 150 24 Q 150 19 150 19 L 112 19 Z M 219 19 L 216 33 L 216 38 L 214 42 L 214 47 L 211 57 L 212 59 L 223 59 L 225 55 L 225 50 L 227 43 L 232 38 L 233 40 L 232 49 L 230 54 L 230 59 L 242 59 L 246 42 Q 247 35 245 32 Q 242 27 233 29 L 230 31 L 232 21 L 232 19 L 219 19 Z M 155 29 L 149 32 L 142 42 Q 141 51 144 55 Q 147 59 154 60 Q 163 61 169 58 L 174 53 L 174 50 L 169 49 Q 161 48 159 52 L 155 51 L 156 48 L 175 48 L 176 46 Q 178 37 174 35 Q 175 32 172 33 L 172 31 Q 167 27 155 29 Z M 191 29 L 185 33 Q 182 32 183 35 L 181 35 L 177 46 L 180 56 L 189 60 Q 198 61 204 58 Q 210 54 211 47 L 205 46 Q 198 45 199 48 L 195 51 Q 191 52 190 49 Q 189 43 192 41 Q 193 37 200 38 L 203 42 L 212 41 L 211 35 Q 206 26 191 29 Z M 100 63 Q 101 67 95 65 L 93 67 L 92 74 Q 96 75 95 72 L 99 71 L 104 72 Q 105 68 102 69 L 103 67 Q 105 61 100 63 Z M 109 63 L 107 72 L 114 71 L 116 72 L 118 72 Q 123 74 125 71 L 124 73 Q 123 75 127 74 L 128 71 L 135 72 L 136 70 L 136 65 L 128 65 L 128 67 L 126 63 L 123 63 L 123 65 Q 120 64 121 67 L 120 67 Q 121 64 118 65 L 118 63 L 116 63 L 113 67 L 112 67 Q 114 61 109 63 Z M 140 63 L 139 67 L 140 68 Q 137 67 138 71 Q 139 73 145 72 L 147 72 L 151 71 L 149 74 L 153 74 L 154 71 L 155 72 L 165 72 L 167 72 L 169 71 L 170 72 L 176 72 L 177 69 L 177 71 Q 178 73 183 72 Q 185 71 184 67 Q 182 63 176 65 L 174 65 Q 168 67 169 63 Q 165 62 166 65 Q 162 66 163 63 Q 159 62 160 65 L 155 65 L 155 63 Q 151 61 152 66 L 151 65 Q 145 66 146 63 L 140 63 Z M 187 63 L 189 67 L 188 72 L 191 71 L 197 72 L 199 72 L 203 71 L 205 72 L 206 69 L 206 72 L 211 72 L 211 69 L 212 69 Q 210 73 214 72 L 216 72 L 220 71 L 222 72 L 224 72 L 228 71 L 228 74 L 234 73 L 237 74 L 241 65 Q 237 63 238 67 L 237 67 Q 237 63 231 65 L 229 65 L 224 66 L 224 65 Q 225 62 221 63 L 221 66 L 217 65 L 215 65 L 207 65 L 206 63 Q 203 62 204 65 L 200 65 L 198 65 Q 193 66 194 63 L 187 63 Z " /><path fill="rgb(0,0,0)" stroke="rgb(0,0,0)" stroke-width="1" opacity="0" d="M 159.5 37 L 164 38 L 164 41 L 156 41 L 157.5 38 L 159.5 37 Z " /><path fill="rgb(0,0,0)" stroke="rgb(0,0,0)" stroke-width="1" opacity="0" d="M 217.5 67 L 218 69.5 L 217 69.5 L 217.5 67 Z " /><path fill="rgb(0,0,0)" stroke="rgb(0,0,0)" stroke-width="1" opacity="0" d="M 141.5 68 L 142.5 70 Q 139.7 70.7 141.5 68 Z " /><path fill="rgb(0,0,0)" stroke="rgb(0,0,0)" stroke-width="1" opacity="0" d="M 200 68 L 203 68.5 L 200.5 70 L 200 68 Z " /><path fill="rgb(33,42,163)" stroke="rgb(33,42,163)" stroke-width="1" opacity="0.996078431372549" d="M 108 4 Q 112.1 2.3 111 6.5 L 112.5 6 L 114 6 Q 112.5 9.7 115.5 9 L 115.5 10 L 106.5 13 L 105 12.5 Q 104.3 16.8 107 17.5 L 106 20 L 103 21.5 L 103 25.5 L 107 33.5 L 105 33.5 L 104.5 35 L 95 35 L 93.5 31 L 93 33.5 L 93.5 35 L 84.5 35 L 84 33.5 L 83.5 32 L 85.5 33 L 86.5 31 Q 84.3 31.8 85 29.5 L 82 31.5 L 83 34.5 L 75.5 35 L 73.5 35 L 64.5 35 L 63.5 36 L 61.5 35 L 60 35.5 Q 59.2 32.9 62.5 34 L 62.5 32 Q 66.7 33.3 65 28.5 L 66.5 26 L 70 27 Q 71.1 24.3 68.5 25 L 70 22.5 L 70.5 21 L 72.5 24 L 74 21 L 72 20.5 L 75.5 16 Q 78.1 16.7 77 14 L 80 14 L 80 12.5 L 81.5 11 L 84 12.5 L 83 10.5 L 86 10 Q 84.8 7 88.5 8 L 91 6.5 L 91 8.5 L 92.5 11 L 95 9.5 L 92 7.5 L 95.5 5 L 98.5 6 L 100.5 6 L 102.5 5 L 103 6.5 L 102.5 8 L 109.5 8 L 110 6.5 L 108.5 7 Q 104.8 7.8 104 5.5 L 106.5 5 L 108 5.5 L 108 4 Z M 112 8 L 110 9 L 110 10 L 113 9 L 112 8 Z M 101 9 L 99 11 L 101 11 L 101 9 Z M 103 9 L 105 12 L 107 11 L 103 9 Z M 102 13 L 102 15 L 104 14 L 102 13 Z M 84 14 L 83 16 L 85 15 L 84 14 Z M 93 15 L 93 17 L 92 19 L 94 19 L 94 15 L 93 15 Z M 75 17 L 74 21 L 76 21 L 77 18 L 75 17 Z M 79 17 L 79 18 L 81 18 L 79 17 Z M 97 21 L 96 24 L 97 24 L 97 21 Z M 89 22 L 89 26 L 90 26 Q 91 21 89 22 Z M 77 23 L 76 26 L 77 26 L 77 23 Z M 83 23 L 83 26 L 84 26 Q 85 22 83 23 Z M 86 23 L 87 26 L 88 24 L 86 23 Z M 100 23 L 99 26 L 100 26 L 100 23 Z M 94 24 L 93 26 L 96 27 L 94 24 Z M 102 24 L 101 27 L 102 27 L 102 24 Z M 75 28 L 73 30 L 76 30 L 75 28 Z M 67 29 L 66 32 L 68 32 L 67 29 Z M 79 30 L 78 33 L 75 34 L 79 34 L 79 30 Z M 92 30 L 91 33 L 92 33 L 92 30 Z " /><path fill="rgb(33,42,163)" stroke="rgb(33,42,163)" stroke-width="1" opacity="0.996078431372549" d="M 116.5 6 L 120 8.5 L 118.5 8 L 116.5 6 Z " /><path fill="rgb(33,42,163)" stroke="rgb(33,42,163)" stroke-width="1" opacity="0.996078431372549" d="M 24.5 21 L 25 26.5 Q 22 30.5 23 38.5 L 25 37.5 L 24 33.5 L 25 33.5 L 26 43 L 24 43.5 L 32 46 L 31.5 44 Q 30.3 46.3 29 43.5 Q 28.2 40.9 31.5 42 L 32.5 39 L 36 41.5 L 35 45 L 32 46.5 L 33 48.5 L 30 50.5 L 31 52.5 L 28.5 56 L 22 57 L 21 53.5 L 23.5 52 Q 24.8 54.3 26 51.5 L 25.5 50 L 23 51 L 24 48.5 L 23 43.5 L 21 40.5 L 23 39.5 L 21 39 L 20 31.5 L 23 30.5 L 24 25.5 L 22 25 L 20.5 29 L 20 24.5 L 21 22 L 24.5 21 Z M 29 46 L 27 48 L 29 48 L 29 46 Z M 27 53 L 25 55 L 27 56 L 27 53 Z " /><path fill="rgb(33,42,163)" stroke="rgb(33,42,163)" stroke-width="1" opacity="0.996078431372549" d="M 41.5 21 L 48.5 23 L 51.5 22 L 53 22.5 Q 49.5 24 52 25.5 L 49.5 34 L 48.5 29 L 47 32.5 L 50 37.5 L 48 38.5 L 48 42.5 Q 48.6 47.1 46 48.5 L 46.5 50 Q 43.9 49.3 45 52 L 47 52.5 L 46 55 L 42.5 57 L 39 57 L 39.5 53 L 41.5 56 L 42 54.5 L 41.5 53 L 43 52.5 L 41.5 50 L 40.5 52 L 40 50.5 L 41 47.5 L 42 44.5 L 41 42.5 L 43 42.5 L 43.5 40 L 44.5 43 L 46 36.5 L 44 36.5 L 43 33.5 L 45 33.5 L 46 30.5 L 45 28 L 42.5 27 L 41 30.5 Q 41.5 34.5 38.5 35 Q 35.1 34.1 37 39.5 L 35.5 39 L 33 37.5 Q 31.5 33.1 34.5 34 L 36 30 Q 38.7 31.1 38 28.5 L 38 26.5 Q 37.3 23.9 40 25 L 40 22.5 L 41.5 21 Z M 39 26 L 39 28 L 41 27 L 39 26 Z M 39 30 L 37 33 L 39 33 L 39 30 Z M 46 44 L 45 47 L 46 47 L 46 44 Z M 42 46 L 43 49 L 44 47 L 42 46 Z " /><path fill="rgb(33,42,163)" stroke="rgb(33,42,163)" stroke-width="1" opacity="0.996078431372549" d="M 114.5 21 Q 116 24.5 117.5 22 L 128.5 22 L 129.5 23 L 130.5 22 L 138 22 Q 136.8 25 140.5 24 L 140.5 23 L 139 22.5 L 142.5 22 L 145 22.5 L 145.5 24 L 146 21 Q 148.7 19.9 148 22.5 Q 145.3 23.6 146 27 L 141 27 L 141 25.5 L 140 25.5 L 139.5 27 L 138.5 25 L 138 27 L 133 30.5 L 132 33.5 L 132 35.5 L 131.5 37 L 130 36.5 L 131 41.5 L 130 43.5 L 130 45.5 L 129 49 L 125 50.5 L 129 52.5 L 127 53.5 L 128 57 L 119.5 57 L 119 54.5 L 120 51.5 L 120.5 47 L 122.5 51 L 125 47.5 L 123.5 45 L 122.5 48 L 122 38.5 L 123.5 34 Q 124.8 36.3 126 33.5 L 124 30.5 L 126 29.5 L 123 28.5 L 123.5 27 L 121.5 26 L 120.5 28 L 116 27 Q 117.1 24.3 114.5 25 L 114.5 27 Q 112.3 27.8 113 25.5 L 114.5 21 Z M 118 23 L 117 26 L 118 26 L 118 23 Z M 121 23 L 122 24 L 123 25 Q 124 22 121 23 Z M 126 23 L 126 24 L 128 24 L 126 23 Z M 134 23 L 135 25 L 134 25 L 132 29 L 136 26 Q 137 22 134 23 Z M 124 36 L 124 38 L 126 37 L 124 36 Z M 129 40 L 127 42 Q 125 47 129 46 L 130 41 L 129 40 Z M 123 41 L 125 45 L 126 43 L 123 41 Z M 123 53 L 123 55 L 125 56 Q 126 52 123 53 Z " /><path fill="rgb(33,42,163)" stroke="rgb(33,42,163)" stroke-width="1" opacity="0.996078431372549" d="M 12 22 L 15.5 23 L 17.5 22 L 20 22.5 L 18.5 28 L 17.5 25 L 16 27.5 L 17 32.5 L 14.5 40 L 13.5 38 L 12 41.5 Q 11 45.3 14 44 L 14.5 42 L 15 43.5 L 14 46 L 10 47.5 L 12.5 48 L 14 47.5 L 13 54 Q 10 52.8 11 56.5 L 8 56.5 Q 7.3 53.9 10 55 L 10 52 L 8 52 Q 9.1 49.3 6.5 50 L 8 47.5 L 7 44.5 L 8.5 45 L 10 44.5 L 9 42 L 11 41.5 L 9.5 39 L 11 39.5 L 10 34.5 L 10 32.5 L 10.5 31 L 14.5 34 L 15 31.5 L 14 29.5 L 14.5 28 L 12 28 L 12 22 Z " /><path fill="rgb(33,42,163)" stroke="rgb(33,42,163)" stroke-width="1" opacity="0.996078431372549" d="M 221 22 L 225 22.5 L 224 26.5 L 225 26.5 L 226.5 24 L 228 30.5 L 223 31.5 L 228.5 35 Q 230.3 31.3 232 34.5 L 231.5 36 Q 230 33.5 228.5 37 Q 226.3 36.3 227 38.5 L 223 42.5 L 224 43.5 L 223 47.5 L 224 49.5 L 220.5 54 L 219 54.5 L 222 56.5 L 220.5 57 L 218 55.5 Q 218.7 58.1 216 57 L 217 52.5 L 215 52.5 L 216 50.5 L 216 48.5 L 217 46.5 L 216 44 L 218 43.5 L 217 40.5 L 219 37.5 L 218 35.5 L 221 34.5 L 219 29 Q 222 30.3 221 26.5 L 221 24.5 L 221 22 Z M 227 35 L 226 36 Q 223 35 224 39 L 228 36 L 227 35 Z M 221 37 L 219 40 L 220 43 L 221 41 L 221 37 Z M 221 45 L 220 47 L 220 48 L 222 48 L 221 45 Z M 217 49 Q 216 52 219 51 Q 220 48 217 49 Z " /><path fill="rgb(33,42,163)" stroke="rgb(33,42,163)" stroke-width="1" opacity="0.996078431372549" d="M 157.5 31 L 161.5 32 L 166 31 Q 164.9 33.7 167.5 33 L 169.5 33 L 171 33.5 L 164.5 37 L 164 35 Q 167 36 166 33 L 163.5 32 L 163 35 L 155 35.5 L 155.5 37 Q 152.9 36.2 154 39.5 L 153 41.5 L 154 44 L 162.5 44 L 163.5 43 L 167 44 L 166.5 42 L 165 42.5 L 168.5 36 L 173 37.5 L 171 38.5 L 174 42.5 L 172.5 42 L 169.5 41 L 170 42.5 Q 169.3 44.8 171.5 44 L 171.5 45 L 155.5 45 L 151 48.5 L 154.5 53 Q 157.1 52.2 156 55.5 L 157 55.5 Q 156.1 52.1 161.5 54 L 163 51 L 167 53 L 167 55.5 L 166 55.5 Q 166.8 53.3 164.5 54 L 165 55.5 Q 165.9 58.9 160.5 57 L 158.5 57 Q 153.1 58.9 154 55.5 L 152.5 54 Q 151 57.5 149.5 55 L 147 54.5 Q 149.3 53.2 146.5 52 L 144 50.5 L 144 46.5 L 147.5 40 L 148.5 42 L 152 37.5 L 148.5 37 L 148.5 39 Q 145.2 40.1 146 37.5 L 153 34 Q 151.7 30.7 156.5 32 L 157.5 31 Z M 153 38 L 150 42 L 153 44 L 152 42 L 153 40 L 153 38 Z M 150 42 L 148 44 L 150 44 L 151 45 L 150 42 Z M 149 46 L 147 48 L 148 49 L 150 48 L 149 46 Z M 151 52 L 149 54 L 152 54 L 151 52 Z " /><path fill="rgb(33,42,163)" stroke="rgb(33,42,163)" stroke-width="1" opacity="0.996078431372549" d="M 199.5 31 L 204 32 Q 202.7 35.3 207.5 34 L 210 37.5 L 205.5 38 L 203 37 L 202.5 39 L 201.5 36 L 200 36.5 L 198.5 34 L 197.5 36 L 195.5 36 L 192.5 37 L 188.5 36 L 189 37.5 L 187.5 42 L 186.5 39 L 186 43 L 184 43.5 L 185.5 49 L 187.5 43 L 188 44.5 L 187 47.5 L 187 49.5 L 187.5 51 Q 188.8 48.8 190 51.5 L 187 53.5 L 188.5 54 L 190.5 53 L 194.5 54 L 202.5 48 L 203.5 51 L 204 49 L 206 49.5 L 205 53 Q 202.3 51.9 203 54.5 L 202 54.5 L 203 52.5 L 199.5 52 L 199.5 53 L 201 53.5 L 199 54.5 L 201 55 Q 202.3 58.3 197.5 57 L 195.5 57 L 192.5 55 L 192 57 L 185 56 L 184.5 54 L 183 54.5 L 180 49.5 L 182 43 L 180 42.5 L 182.5 39 L 183.5 41 L 184 35 L 189 34 L 189.5 32 L 197.5 32 L 199 32.5 L 199.5 31 Z M 207 35 L 205 37 L 208 37 Q 209 34 207 35 Z M 195 54 L 195 56 L 197 55 L 195 54 Z " /><path fill="rgb(33,42,163)" stroke="rgb(33,42,163)" stroke-width="1" opacity="0.996078431372549" d="M 236.5 31 L 242 33.5 L 243 38.5 L 241 43.5 L 242 45.5 L 241 49.5 L 242 52 L 240 52.5 L 240 54.5 L 239.5 56 L 238.5 53 L 238 56 L 235.5 57 L 235 55 L 233 55.5 L 233.5 57 L 232 54.5 L 235.5 52 L 238 53 L 238 51 Q 234.3 52.5 235 49.5 L 234 46.5 L 235.5 43 L 236.5 46 Q 239 45 238 40.5 L 240 38.5 L 238.5 36 L 237.5 38 L 234 35.5 L 232 32.5 L 233.5 33 L 236.5 31 Z M 236 34 L 236 35 L 238 35 L 236 34 Z M 241 34 L 240 38 L 241 38 L 241 34 Z M 239 48 L 238 50 L 240 51 L 239 48 Z " /><path fill="rgb(33,42,163)" stroke="rgb(33,42,163)" stroke-width="1" opacity="0.996078431372549" d="M 6.5 52 L 7 57 L 5 56.5 L 6.5 52 Z " /><path fill="rgb(33,42,160)" stroke="rgb(33,42,160)" stroke-width="1" opacity="0.996078431372549" d="M 98.5 3 L 110.5 3 L 112.5 5 L 115.5 4 L 124 9.5 L 116.5 10 L 114 9 Q 115.5 5.2 112.5 6 L 111 6.5 Q 112.1 2.3 108 4 L 107.5 6 L 104.5 5 L 105.5 7 L 109.5 6 L 110 8 L 102 7.5 L 103 5.5 L 101.5 6 L 99.5 5 L 96.5 6 Q 95 3.5 93.5 7 L 92 7.5 L 95 9.5 L 92.5 11 L 90.5 11 L 89 10.5 L 91 10 L 89.5 7 L 86 8 Q 87.3 11 83.5 10 L 84 11.5 L 83.5 13 L 80 12.5 L 80 14 L 77 14 Q 78.1 16.7 75.5 16 L 75.5 17 L 77 17.5 L 76 21 Q 73.3 19.9 74 22.5 L 72 23.5 L 70.5 21 L 70 22.5 L 71 24.5 L 70 27 L 66.5 26 L 65 32 L 62 32.5 L 62.5 34 Q 59.2 32.9 60 35.5 L 61.5 35 L 63.5 36 L 64.5 35 L 74 34.5 L 72 33.5 L 73.5 33 L 75.5 33 Q 79.3 34.3 78 30.5 L 77.5 29 L 79 29.5 L 79.5 28 L 81 30.5 L 79 30.5 Q 80.8 35.8 75.5 34 L 75.5 35 L 83 34.5 L 82 31.5 L 82.5 29 L 85 29.5 Q 84.3 31.8 86.5 31 L 88 30.5 Q 84.9 32.3 86.5 34 L 83.5 32 L 84 33.5 L 84.5 35 L 93.5 35 L 93 33.5 L 93.5 31 L 95 35 L 104.5 35 L 105 33.5 L 105 31.5 L 103 21.5 L 106 20 L 106.5 18 L 107 19.5 L 106 20.5 L 106 30.5 L 110 36.5 L 56.5 37 L 56.5 36 L 62 31.5 Q 68.5 20 78.5 12 L 89.5 6 L 91 6.5 Q 90.2 3.9 93.5 5 L 98.5 3 Z M 117 6 L 118 8 L 119 8 L 117 6 Z M 75 17 L 74 19 L 73 21 L 75 20 L 75 17 Z M 70 23 L 68 25 L 70 25 L 70 23 Z " /><path fill="rgb(33,42,160)" stroke="rgb(33,42,160)" stroke-width="1" opacity="0.996078431372549" d="M 99.5 7 L 101 11 L 95.5 14 L 95.5 13 L 97 12.5 L 96.5 11 Q 97.7 13.3 99 10.5 L 99 8.5 L 99.5 7 Z " /><path fill="rgb(33,42,160)" stroke="rgb(33,42,160)" stroke-width="1" opacity="0.996078431372549" d="M 111.5 8 L 113 8.5 L 108.5 11 L 109.5 9 L 111.5 8 Z " /><path fill="rgb(33,42,160)" stroke="rgb(33,42,160)" stroke-width="1" opacity="0.996078431372549" d="M 103 9 L 107 10.5 L 105 11.5 L 108.5 13 L 114.5 10 L 114.5 11 L 109 14.5 L 107.5 17 L 105.5 16 L 104 16.5 L 105 12.5 L 103 9 Z " /><path fill="rgb(33,42,160)" stroke="rgb(33,42,160)" stroke-width="1" opacity="0.996078431372549" d="M 101.5 12 L 104 13.5 L 100.5 16 L 100.5 15 Q 102.8 15.8 102 13.5 L 101.5 12 Z " /><path fill="rgb(33,42,160)" stroke="rgb(33,42,160)" stroke-width="1" opacity="0.996078431372549" d="M 81.5 14 L 83.5 14 L 85.5 15 L 87 14.5 L 85.5 17 L 84.5 15 L 82.5 16 L 81.5 14 Z " /><path fill="rgb(33,42,160)" stroke="rgb(33,42,160)" stroke-width="1" opacity="0.996078431372549" d="M 88.5 15 L 89.5 17 L 87 16.5 L 88.5 15 Z " /><path fill="rgb(33,42,160)" stroke="rgb(33,42,160)" stroke-width="1" opacity="0.996078431372549" d="M 92.5 15 L 94 15 L 94 19 L 91 17.5 L 92.5 15 Z " /><path fill="rgb(33,42,160)" stroke="rgb(33,42,160)" stroke-width="1" opacity="0.996078431372549" d="M 78.5 17 L 81 17.5 L 78.5 18 L 78.5 17 Z " /><path fill="rgb(33,42,160)" stroke="rgb(33,42,160)" stroke-width="1" opacity="0.996078431372549" d="M 83.5 17 L 85 19.5 L 84 19.5 L 83.5 17 Z " /><path fill="rgb(33,42,160)" stroke="rgb(33,42,160)" stroke-width="1" opacity="0.996078431372549" d="M 12 20 L 26 20 L 26 32.5 L 27 33.5 L 27 43 L 30.5 45 L 32 44.5 L 32.5 46 L 35 45 L 28.5 58 L 21.5 58 L 21 55.5 L 22 55.5 Q 21.1 58.9 26.5 57 L 25 54.5 L 26.5 53 L 27 56 L 30 54.5 L 31 52.5 L 30 50.5 L 33 48.5 L 32 46 L 29 46 Q 30.1 48.7 27.5 48 L 26.5 46 Q 27.8 48.3 29 45.5 L 24.5 44 L 23 45.5 L 23 49.5 Q 22.3 51.8 24.5 51 L 26 50.5 L 24.5 53 L 22.5 52 L 21 52.5 Q 18.4 46.6 20 36.5 L 21 36.5 Q 20 40.3 23 39 L 23 31.5 L 21.5 30 L 19.5 33 L 18.5 31 L 13 58 L 4.5 58 L 4 55.5 L 5 50 L 8 50 Q 7 53 10 52 L 10 55 Q 7.3 53.9 8 56.5 L 11 56.5 L 11 54 L 13 53.5 L 13 49.5 L 14 47.5 L 12.5 48 L 10 48.5 L 10.5 50 Q 7.5 48.5 10.5 47 L 12 46.5 L 11.5 45 L 14 46 Q 15 43 12 44 L 12 41.5 L 13.5 38 L 14.5 40 L 17 32.5 L 17 28.5 L 14 26.5 L 15.5 26 L 17 26.5 L 17.5 25 L 18.5 28 L 19 23.5 L 17 23.5 L 17.5 22 L 14.5 24 L 14.5 22 L 12 22 L 12 28 L 15 28.5 L 14 30.5 L 15 33.5 L 12.5 32 L 10 30.5 L 12 20 Z M 25 21 L 21 22 L 20 29 L 22 28 Q 21 24 24 25 L 23 27 L 24 31 L 25 27 L 25 21 Z M 25 33 L 25 38 L 21 41 L 24 44 L 26 43 Q 27 37 25 33 Z M 7 52 L 5 57 L 7 57 L 7 52 Z " /><path fill="rgb(33,42,160)" stroke="rgb(33,42,160)" stroke-width="1" opacity="0.996078431372549" d="M 40.5 20 L 53.5 20 L 54 22.5 L 48 50.5 L 46.5 52 Q 44.3 52.8 45 50.5 L 44.5 49 L 46.5 50 L 46 48.5 L 45 44.5 L 46 44.5 L 46.5 47 L 49 41.5 L 47 39.5 L 47.5 37 L 49.5 38 L 49 36.5 L 47 31.5 L 48 29.5 L 47.5 28 Q 50.1 29.4 49.5 34 L 52 25.5 L 51 24.5 L 52.5 22 L 50.5 23 L 47.5 22 L 41.5 21 L 40 25 Q 37.3 23.9 38 26.5 L 38 28.5 L 39 33 L 37 32.5 L 38 30 Q 35 28.8 36 32.5 L 33.5 34 L 34 32.5 L 40.5 20 Z " /><path fill="rgb(33,42,160)" stroke="rgb(33,42,160)" stroke-width="1" opacity="0.996078431372549" d="M 113 20 L 148.5 20 L 149 21.5 L 147.5 21 Q 144.9 20.2 146 23.5 L 148 23.5 L 147 29 L 135.5 29 L 134 30.5 Q 135.3 35.3 132 34 L 131.5 32 L 130.5 34 L 130 32.5 L 133 31.5 L 136.5 27 Q 138.8 27.8 138 25.5 L 139 25.5 L 139.5 27 L 140.5 25 L 141 27 L 146 27 L 146 24.5 L 144.5 22 L 142.5 22 L 139 22.5 L 141 23.5 L 138 24 L 137.5 22 L 130.5 22 L 130.5 24 L 128.5 22 L 117.5 22 L 118 23.5 L 117.5 26 L 114.5 21 L 114 25 Q 117 24 116 27 L 119.5 27 L 121 27.5 L 120 25.5 L 122.5 27 L 124 27.5 L 123.5 29 L 126 29.5 L 124 30.5 L 126 33.5 L 123 34.5 L 122 47.5 L 123 47.5 L 124 44.5 L 123 41 L 126 42.5 L 124 46.5 Q 126.5 48 123 49.5 L 122.5 51 L 120.5 47 L 119 52.5 L 119 54.5 L 119.5 57 L 128 57 L 127.5 54 L 126 54.5 L 129 52.5 L 125.5 51 L 124 51.5 L 129 49 L 130.5 45 L 131 48.5 L 127.5 58 L 118 58 L 118 52.5 L 123 29 L 112 29 L 112 25.5 L 113 20 Z M 114 25 Q 112 28 115 27 L 114 25 Z " /><path fill="rgb(33,42,160)" stroke="rgb(33,42,160)" stroke-width="1" opacity="0.996078431372549" d="M 221.5 20 L 230 20 L 230 24.5 L 227.5 30 L 226.5 24 L 224.5 27 L 224 23.5 L 224.5 22 Q 219.7 20.3 221 24.5 L 221 26.5 L 222 29.5 L 220 32.5 L 221 34.5 L 218 35.5 L 219.5 39 L 221.5 36 L 223 38.5 L 222 38.5 L 221.5 37 L 220 43 L 222 43.5 L 220.5 44 L 218.5 39 L 217 42.5 L 217.5 44 Q 215.3 43.3 216 45.5 L 216 47.5 L 215 49.5 L 217 54.5 L 216 57 Q 218.7 58.1 218 55.5 L 223 51.5 L 223.5 50 L 224 52.5 Q 220.5 54 223 55.5 L 221.5 58 L 213 58 L 213 53.5 L 218.5 30 Q 219.8 32.3 221 29.5 L 219 29 L 220 21.5 L 221.5 20 Z " /><path fill="rgb(33,42,160)" stroke="rgb(33,42,160)" stroke-width="1" opacity="0.996078431372549" d="M 96.5 21 L 97 23.5 L 96 23.5 L 96.5 21 Z " /><path fill="rgb(33,42,160)" stroke="rgb(33,42,160)" stroke-width="1" opacity="0.996078431372549" d="M 88.5 22 Q 91.5 21.1 90 25.5 L 89 25.5 L 88.5 23 L 86.5 26 L 85 23.5 L 88.5 22 Z " /><path fill="rgb(33,42,160)" stroke="rgb(33,42,160)" stroke-width="1" opacity="0.996078431372549" d="M 92.5 22 L 91.5 24 L 92.5 22 Z " /><path fill="rgb(33,42,160)" stroke="rgb(33,42,160)" stroke-width="1" opacity="0.996078431372549" d="M 98.5 22 L 100 25.5 L 99 25.5 L 98.5 22 Z " /><path fill="rgb(33,42,160)" stroke="rgb(33,42,160)" stroke-width="1" opacity="0.996078431372549" d="M 76.5 23 L 77 25.5 L 76 25.5 L 76.5 23 Z " /><path fill="rgb(33,42,160)" stroke="rgb(33,42,160)" stroke-width="1" opacity="0.996078431372549" d="M 82.5 23 Q 85.1 22.2 84 25.5 L 83 25.5 L 82.5 23 Z " /><path fill="rgb(33,42,160)" stroke="rgb(33,42,160)" stroke-width="1" opacity="0.996078431372549" d="M 94.5 23 L 95.5 27 L 93 25.5 L 94.5 23 Z " /><path fill="rgb(33,42,160)" stroke="rgb(33,42,160)" stroke-width="1" opacity="0.996078431372549" d="M 120.5 23 Q 123.8 21.9 123 24.5 L 121.5 24 L 120.5 23 Z " /><path fill="rgb(33,42,160)" stroke="rgb(33,42,160)" stroke-width="1" opacity="0.996078431372549" d="M 125.5 23 L 128 23.5 L 125.5 24 L 125.5 23 Z " /><path fill="rgb(33,42,160)" stroke="rgb(33,42,160)" stroke-width="1" opacity="0.996078431372549" d="M 133.5 23 Q 137.3 21.8 136 25.5 L 132 28.5 L 133.5 25 L 135 24.5 L 133.5 23 Z " /><path fill="rgb(33,42,160)" stroke="rgb(33,42,160)" stroke-width="1" opacity="0.996078431372549" d="M 101.5 24 L 102 26.5 L 101 26.5 L 101.5 24 Z " /><path fill="rgb(33,42,160)" stroke="rgb(33,42,160)" stroke-width="1" opacity="0.996078431372549" d="M 41.5 25 L 43 25.5 L 39.5 28 L 39 26 L 41.5 25 Z " /><path fill="rgb(33,42,160)" stroke="rgb(33,42,160)" stroke-width="1" opacity="0.996078431372549" d="M 42.5 27 L 45 28 L 46 30.5 L 44 36.5 L 46 36.5 L 44.5 43 L 43.5 40 L 42.5 43 L 41 39.5 L 44 33.5 L 42.5 30 L 41.5 32 L 41 30.5 L 42.5 27 Z " /><path fill="rgb(33,42,160)" stroke="rgb(33,42,160)" stroke-width="1" opacity="0.996078431372549" d="M 72.5 28 L 76 29.5 L 71.5 32 L 69 31.5 L 73 29.5 L 72.5 28 Z " /><path fill="rgb(33,42,160)" stroke="rgb(33,42,160)" stroke-width="1" opacity="0.996078431372549" d="M 66.5 29 L 68 31.5 L 66 32 L 66.5 29 Z " /><path fill="rgb(33,42,160)" stroke="rgb(33,42,160)" stroke-width="1" opacity="0.996078431372549" d="M 91.5 30 L 92 32.5 L 91 32.5 L 91.5 30 Z " /><path fill="rgb(33,42,160)" stroke="rgb(33,42,160)" stroke-width="1" opacity="0.996078431372549" d="M 156.5 30 L 165 30.5 L 160.5 32 L 157.5 31 L 153 32 Q 154.1 34.7 151.5 34 L 146.5 37 L 149.5 33 L 156.5 30 Z " /><path fill="rgb(33,42,160)" stroke="rgb(33,42,160)" stroke-width="1" opacity="0.996078431372549" d="M 193.5 30 L 204.5 31 L 209 34.5 L 208 37 L 205 37.5 L 209.5 38 L 209.5 36 L 211 40 L 202.5 40 L 201 38.5 L 202.5 35 L 204 35.5 L 202 36 L 202.5 39 L 203 37 L 208 34.5 L 204 34 Q 205.3 30.7 200.5 32 L 199 31.5 L 198.5 33 L 197.5 32 L 189 32 Q 187.9 34.7 190.5 34 L 190.5 35 L 186.5 34 L 186.5 35 L 191.5 36 L 192.5 33 L 195 34.5 L 193 35.5 L 195.5 36 L 198 35.5 L 198.5 34 L 200 37 Q 192 35.3 190 40.5 L 189 49.5 Q 190.4 52.6 195.5 52 L 200 48.5 Q 199.2 45.9 202.5 47 L 209 48 L 207.5 52 L 206 51.5 Q 206.5 56.5 202.5 57 L 199.5 55 L 199.5 54 L 201 53.5 L 196.5 52 L 195.5 54 L 197.5 53 L 196 55.5 L 197.5 57 L 200 57.5 L 186.5 58 L 181 54.5 Q 177.7 50.8 179 42.5 L 185.5 33 L 193.5 30 Z M 184 35 L 184 41 L 183 39 L 180 43 L 182 43 L 183 46 L 182 45 L 180 50 L 183 55 L 185 54 L 185 56 L 189 57 Q 193 58 192 56 L 195 57 L 196 57 L 195 54 L 191 53 L 189 54 L 187 54 L 190 52 L 187 51 L 188 49 L 187 45 L 186 49 L 185 45 L 184 42 L 186 43 L 185 39 L 186 37 L 186 39 L 189 39 L 189 38 L 184 35 Z M 188 39 L 187 42 L 188 42 L 188 39 Z M 203 48 L 199 52 L 205 53 L 206 50 L 204 49 L 204 51 L 203 48 Z " /><path fill="rgb(33,42,160)" stroke="rgb(33,42,160)" stroke-width="1" opacity="0.996078431372549" d="M 234.5 30 Q 241.8 28.8 244 32.5 L 243 34.5 L 245 34.5 L 245 40.5 L 243 50 Q 239.7 51.3 241 46.5 L 242 44.5 L 240 41.5 L 241 41.5 L 241.5 43 L 243 36.5 L 240.5 32 L 236.5 31 L 236.5 33 L 234.5 33 L 233 33.5 L 235.5 37 L 237.5 38 L 238.5 36 L 239.5 38 L 240.5 34 L 241 37.5 L 240.5 40 Q 239.3 37.8 238 40.5 L 238.5 45 L 240 44.5 L 238.5 47 L 237.5 45 L 236 45.5 L 235.5 43 L 234 48.5 L 235 51 Q 238.8 49.5 238 52.5 L 239.5 56 L 241 53.5 L 240.5 52 Q 243.1 51.2 242 54.5 L 241 58 L 231.5 58 L 231 55.5 L 233.5 55 Q 235.8 54.3 235 56.5 L 236.5 56 Q 239.5 56.7 238 53 L 235.5 52 L 232.5 54 L 232 50.5 Q 235 46.5 234 38.5 L 230.5 37 Q 225.2 40.4 225 48 L 222.5 49 L 219 47.5 L 220.5 45 L 222.5 48 L 224 43.5 L 223 42.5 L 227 38.5 L 226.5 37 L 224 38.5 Q 222.9 35.2 225.5 36 L 225.5 35 L 224 34.5 L 225.5 34 L 227.5 35 L 226.5 33 L 223.5 32 L 222 32.5 Q 223.4 29.8 228 31 Q 226.9 33.7 229.5 33 L 234.5 30 Z M 231 33 L 227 37 L 229 37 Q 230 34 232 36 L 231 33 Z " /><path fill="rgb(33,42,160)" stroke="rgb(33,42,160)" stroke-width="1" opacity="0.996078431372549" d="M 127.5 31 L 129 33.5 L 127 32.5 L 127.5 31 Z " /><path fill="rgb(33,42,160)" stroke="rgb(33,42,160)" stroke-width="1" opacity="0.996078431372549" d="M 166 31 L 170 32.5 Q 168.8 35.3 167.5 33 Q 164.9 32.3 166 35 Q 170.3 36 171.5 33 Q 175 36 175 42.5 L 174 47 L 153.5 47 L 153 49.5 L 154 52 L 160.5 53 L 163 51.5 L 161.5 54 Q 156.1 52.1 157 55.5 L 156 55.5 Q 157.1 52.2 154.5 53 Q 153.3 50.8 152 53.5 L 155 54.5 L 154 57 L 159 57.5 L 151.5 58 L 145 53.5 L 144 51.5 L 145.5 52 L 148 53.5 L 147.5 55 L 150.5 56 L 151.5 54 L 149 53.5 L 153 51.5 L 151.5 49 L 150 49.5 L 155.5 45 L 172 44.5 L 170 44 L 169 41.5 L 170.5 41 L 173.5 43 L 174 41.5 L 171.5 38 L 173 37.5 L 168.5 36 L 167 38.5 L 170 39.5 L 166 39.5 L 167 44 L 163.5 43 L 162.5 44 L 154 44 L 153.5 42 L 152.5 44 L 151 43.5 L 152 45.5 L 147.5 49 L 147 47.5 L 151 45.5 L 148 43.5 L 148 41.5 L 147.5 40 L 143.5 49 L 143 43.5 L 145 43.5 L 144 40.5 L 145.5 38 L 148.5 39 L 148.5 37 Q 153.7 37.7 154.5 34 L 155.5 35 L 163 35 L 163.5 32 L 166 33 L 166 31 Z M 155 35 L 152 38 L 153 40 L 154 40 Q 153 36 156 37 L 155 35 Z M 164 35 L 164 37 L 166 36 L 164 35 Z M 158 36 L 154 42 L 165 42 L 165 39 Q 164 35 158 36 Z " /><path fill="rgb(33,42,160)" stroke="rgb(33,42,160)" stroke-width="1" opacity="0.996078431372549" d="M 9.5 32 Q 12.3 33.3 10 34.5 L 11 39.5 L 10.5 42 Q 8.3 41.3 9 43.5 L 11 43.5 L 8 45 L 6.5 49 L 6 45 L 8 44.5 L 7 41.5 L 9.5 32 Z " /><path fill="rgb(33,42,160)" stroke="rgb(33,42,160)" stroke-width="1" opacity="0.996078431372549" d="M 102.5 32 L 103.5 34 L 102.5 32 Z " /><path fill="rgb(33,42,160)" stroke="rgb(33,42,160)" stroke-width="1" opacity="0.996078431372549" d="M 40.5 33 L 40 34.5 Q 40.8 36.8 38.5 36 L 38 38.5 L 35.5 44 L 34.5 42 L 33 42.5 L 34.5 40 L 29.5 42 L 30 40.5 L 32.5 35 L 34.5 39 L 36.5 40 L 37 35 L 40.5 33 Z " /><path fill="rgb(33,42,160)" stroke="rgb(33,42,160)" stroke-width="1" opacity="0.996078431372549" d="M 235.5 34 L 238 34.5 L 235.5 35 L 235.5 34 Z " /><path fill="rgb(33,42,160)" stroke="rgb(33,42,160)" stroke-width="1" opacity="0.996078431372549" d="M 12.5 35 L 13.5 37 L 12.5 35 Z " /><path fill="rgb(33,42,160)" stroke="rgb(33,42,160)" stroke-width="1" opacity="0.996078431372549" d="M 132.5 35 L 133 38.5 L 130.5 44 L 130 42.5 L 131 38.5 L 130 36.5 L 132 36.5 L 132.5 35 Z " /><path fill="rgb(33,42,160)" stroke="rgb(33,42,160)" stroke-width="1" opacity="0.996078431372549" d="M 124 36 L 126 36.5 L 124 37.5 L 124 36 Z " /><path fill="rgb(33,42,160)" stroke="rgb(33,42,160)" stroke-width="1" opacity="0.996078431372549" d="M 126.5 38 L 128 38.5 L 125.5 40 L 126.5 38 Z " /><path fill="rgb(33,42,160)" stroke="rgb(33,42,160)" stroke-width="1" opacity="0.996078431372549" d="M 128.5 40 L 130 40.5 L 129 46 Q 125.3 47.4 127 41.5 L 128.5 40 Z " /><path fill="rgb(33,42,160)" stroke="rgb(33,42,160)" stroke-width="1" opacity="0.996078431372549" d="M 40.5 43 Q 43.3 44.3 41 45.5 L 40 48.5 L 42.5 52 L 44 51.5 L 43.5 54 L 41.5 53 L 42 54.5 L 41.5 56 L 39.5 53 L 39 57 L 42.5 57 L 46 55 L 46.5 53 L 47 55.5 L 46 58 L 37.5 58 L 37 56.5 L 40.5 43 Z " /><path fill="rgb(33,42,160)" stroke="rgb(33,42,160)" stroke-width="1" opacity="0.996078431372549" d="M 42 46 L 44 46.5 L 42.5 49 L 42 46 Z " /><path fill="rgb(33,42,160)" stroke="rgb(33,42,160)" stroke-width="1" opacity="0.996078431372549" d="M 238.5 48 L 240 50.5 L 238 49.5 L 238.5 48 Z " /><path fill="rgb(33,42,160)" stroke="rgb(33,42,160)" stroke-width="1" opacity="0.996078431372549" d="M 217 49 Q 219.7 47.9 219 50.5 L 220.5 50 L 222 50.5 L 218.5 53 L 218.5 51 Q 215.9 51.7 217 49 Z " /><path fill="rgb(33,42,160)" stroke="rgb(33,42,160)" stroke-width="1" opacity="0.996078431372549" d="M 165 51 L 171.5 51 L 172 52.5 Q 169.4 58.4 160.5 58 L 160.5 57 Q 165.9 58.9 165 55.5 L 164.5 54 Q 166.8 53.3 166 55.5 L 167 55.5 L 167 53 Q 164 54 165 51 Z " /><path fill="rgb(33,42,160)" stroke="rgb(33,42,160)" stroke-width="1" opacity="0.996078431372549" d="M 123 53 Q 126 51.8 125 55.5 L 123 54.5 L 123 53 Z " /><path fill="rgb(46,164,72)" stroke="rgb(46,164,72)" stroke-width="1" opacity="0.6980392156862745" d="M 55 40 L 110.5 40 L 111 41.5 Q 100.8 50.5 94 62 L 81.5 71 L 72.5 75 L 54.5 76 Q 44.3 74.3 39 67.5 L 42.5 67 L 47.5 68 L 51.5 67 L 56 63.5 Q 60.7 58.7 59 47.5 L 55 42.5 L 55 40 Z " /><path fill="rgb(46,164,72)" stroke="rgb(46,164,72)" stroke-width="1" opacity="0.6980392156862745" d="M 110.5 63 L 112.5 68 L 115 63 Q 118.3 61.9 117 66 L 119 66 L 119 69.5 L 121 68.5 L 121 66 Q 123.7 67.1 123 64.5 L 125 63.5 L 125 66 Q 127.7 64.9 127 67.5 L 129.5 66 L 134.5 65 L 136 67.5 L 135 71 L 131.5 72 L 129.5 68 L 125.5 74 L 124 73.5 L 126 69.5 L 124 68.5 Q 125.3 73.1 119.5 71 Q 118.3 73.3 117 70.5 L 116.5 68 L 116 71 L 113.5 70 L 111 71 L 110.5 69 L 110 71 Q 106.7 72.3 108 67.5 L 110.5 63 Z " /><path fill="rgb(46,164,72)" stroke="rgb(46,164,72)" stroke-width="1" opacity="0.6980392156862745" d="M 141.5 63 Q 145.3 62.3 146 64.5 Q 145.3 66.8 147.5 66 L 149.5 65 L 151.5 70 L 152 66 L 157.5 65 L 159.5 66 L 161.5 63 L 162 65 L 165 65 L 165 71 Q 162.3 72.1 163 69.5 L 164 67 Q 161 65.8 162 69.5 L 160 70.5 L 159.5 69 L 159 71 L 155.5 72 L 153 70.5 L 151.5 74 Q 149.3 74.8 150 72.5 L 150.5 71 L 147.5 72 Q 144.8 70.6 146 66 L 142.5 65 L 143.5 67 L 145 67 L 145 71 L 141.5 72 L 139 71 Q 137.9 68.3 140.5 69 L 143 70 Q 144.1 67.3 141.5 68 L 140 64.5 L 141.5 63 Z " /><path fill="rgb(46,164,72)" stroke="rgb(46,164,72)" stroke-width="1" opacity="0.6980392156862745" d="M 188 63 L 192.5 63 L 198.5 67 L 201.5 65 L 204 66.5 Q 202.9 63.2 205.5 64 L 209.5 66 L 212.5 65 L 216.5 66 L 218.5 65 L 221 66.5 L 222.5 63 L 223 66 L 226.5 65 Q 228.5 69 230.5 65 L 237 66 L 237.5 68 L 238 66 Q 240.7 64.9 240 67.5 L 235.5 74 Q 233.3 74.8 234 72.5 L 231.5 74 L 228 72.5 L 232 71.5 L 228.5 70 L 225.5 72 L 223 71 L 222.5 69 L 222 71 L 217.5 72 L 215 71 L 214.5 69 L 214 71 Q 211.3 72.1 212 69.5 L 213 67 Q 210 65.8 211 69.5 L 209 70.5 L 208.5 69 L 208 71 L 206 70.5 L 207 67 L 205 67 L 205 71 L 203.5 71 Q 202 68.5 200.5 72 L 198 70.5 L 197.5 69 L 197 71 L 194.5 72 L 192 71 Q 191 66.8 194 65.5 L 191 65 Q 192.3 69.6 189.5 71 L 188 70.5 L 189 65.5 L 188 63 Z M 201 67 L 199 70 L 203 69 L 201 67 Z M 217 67 L 217 70 L 219 69 Q 220 66 217 67 Z M 225 67 L 225 70 L 227 69 Q 228 66 225 67 Z M 232 67 L 230 69 Q 229 71 232 70 Q 235 69 232 67 Z M 235 68 Q 232 73 236 72 L 235 68 Z " /><path fill="rgb(46,164,72)" stroke="rgb(46,164,72)" stroke-width="1" opacity="0.6980392156862745" d="M 100 64 Q 103.3 62.7 102 67.5 L 101 71 L 98.5 70 L 95 71 L 93.5 74 L 93 69.5 L 95.5 65 L 99.5 67 L 100 64 Z M 97 67 L 95 70 L 97 70 L 97 67 Z " /><path fill="rgb(46,164,72)" stroke="rgb(46,164,72)" stroke-width="1" opacity="0.6980392156862745" d="M 167.5 64 L 168 66 L 172.5 65 L 174.5 68 L 176.5 65 L 179.5 66 L 181.5 65 Q 184.3 66.4 183 71 L 179.5 72 L 178 68 L 181 67.5 L 177.5 67 L 176 71 Q 173.3 72.1 174 69.5 L 173 69.5 L 171.5 72 L 168.5 70 L 166 71 Q 164.5 65.6 167.5 64 Z " /><path fill="rgb(41,47,138)" stroke="rgb(41,47,138)" stroke-width="1" opacity="0.5019607843137255" d="M 100.5 2 L 109 2.5 L 100.5 3 L 100.5 2 Z " /><path fill="rgb(41,47,138)" stroke="rgb(41,47,138)" stroke-width="1" opacity="0.5019607843137255" d="M 95.5 3 L 98 3.5 L 95.5 4 L 95.5 3 Z " /><path fill="rgb(41,47,138)" stroke="rgb(41,47,138)" stroke-width="1" opacity="0.5019607843137255" d="M 111.5 3 L 114 3.5 L 111.5 4 L 111.5 3 Z " /><path fill="rgb(41,47,138)" stroke="rgb(41,47,138)" stroke-width="1" opacity="0.5019607843137255" d="M 91.5 4 L 94 4.5 L 89.5 6 L 89.5 5 L 91.5 4 Z " /><path fill="rgb(41,47,138)" stroke="rgb(41,47,138)" stroke-width="1" opacity="0.5019607843137255" d="M 116.5 4 L 121 6.5 L 119.5 6 Q 115.7 5.7 116.5 4 Z " /><path fill="rgb(41,47,138)" stroke="rgb(41,47,138)" stroke-width="1" opacity="0.5019607843137255" d="M 122.5 7 L 125.5 11 L 123 10.5 L 124 9.5 L 122.5 7 Z " /><path fill="rgb(41,47,138)" stroke="rgb(41,47,138)" stroke-width="1" opacity="0.5019607843137255" d="M 83.5 8 L 82.5 10 L 83.5 8 Z " /><path fill="rgb(41,47,138)" stroke="rgb(41,47,138)" stroke-width="1" opacity="0.5019607843137255" d="M 80.5 10 L 79.5 12 L 80.5 10 Z " /><path fill="rgb(41,47,138)" stroke="rgb(41,47,138)" stroke-width="1" opacity="0.5019607843137255" d="M 115.5 10 L 117 10.5 L 112.5 13 L 113.5 11 L 115.5 10 Z " /><path fill="rgb(41,47,138)" stroke="rgb(41,47,138)" stroke-width="1" opacity="0.5019607843137255" d="M 77.5 12 L 68.5 22 L 77.5 12 Z " /><path fill="rgb(41,47,138)" stroke="rgb(41,47,138)" stroke-width="1" opacity="0.5019607843137255" d="M 110.5 13 L 109.5 15 L 110.5 13 Z " /><path fill="rgb(41,47,138)" stroke="rgb(41,47,138)" stroke-width="1" opacity="0.5019607843137255" d="M 108.5 16 L 108 17.5 L 107.5 19 L 107 17.5 L 108.5 16 Z " /><path fill="rgb(41,47,138)" stroke="rgb(41,47,138)" stroke-width="1" opacity="0.5019607843137255" d="M 106.5 20 L 107 22.5 L 106 22.5 L 106.5 20 Z " /><path fill="rgb(41,47,138)" stroke="rgb(41,47,138)" stroke-width="1" opacity="0.5019607843137255" d="M 230.5 20 L 231 22.5 L 230 22.5 L 230.5 20 Z " /><path fill="rgb(41,47,138)" stroke="rgb(41,47,138)" stroke-width="1" opacity="0.5019607843137255" d="M 26.5 22 L 27 32.5 L 26 32.5 L 26.5 22 Z " /><path fill="rgb(41,47,138)" stroke="rgb(41,47,138)" stroke-width="1" opacity="0.5019607843137255" d="M 112.5 22 L 113 24.5 L 112 24.5 L 112.5 22 Z " /><path fill="rgb(41,47,138)" stroke="rgb(41,47,138)" stroke-width="1" opacity="0.5019607843137255" d="M 148.5 22 L 149 24.5 L 148 24.5 L 148.5 22 Z " /><path fill="rgb(41,47,138)" stroke="rgb(41,47,138)" stroke-width="1" opacity="0.5019607843137255" d="M 219.5 22 L 220 24.5 L 219 24.5 L 219.5 22 Z " /><path fill="rgb(41,47,138)" stroke="rgb(41,47,138)" stroke-width="1" opacity="0.5019607843137255" d="M 10.5 23 L 11 26.5 L 10 26.5 L 10.5 23 Z " /><path fill="rgb(41,47,138)" stroke="rgb(41,47,138)" stroke-width="1" opacity="0.5019607843137255" d="M 53.5 23 L 54 25.5 L 53 25.5 L 53.5 23 Z " /><path fill="rgb(41,47,138)" stroke="rgb(41,47,138)" stroke-width="1" opacity="0.5019607843137255" d="M 67.5 23 L 64.5 27 L 67.5 23 Z " /><path fill="rgb(41,47,138)" stroke="rgb(41,47,138)" stroke-width="1" opacity="0.5019607843137255" d="M 229.5 25 L 230 27.5 L 229 27.5 L 229.5 25 Z " /><path fill="rgb(41,47,138)" stroke="rgb(41,47,138)" stroke-width="1" opacity="0.5019607843137255" d="M 111.5 26 L 112 29 L 123 29.5 L 112.5 30 Q 110 29 111.5 26 Z " /><path fill="rgb(41,47,138)" stroke="rgb(41,47,138)" stroke-width="1" opacity="0.5019607843137255" d="M 147.5 27 L 148 28.5 L 146.5 30 L 135 30 L 134.5 33 L 134 30.5 L 135.5 29 L 147 29 L 147.5 27 Z " /><path fill="rgb(41,47,138)" stroke="rgb(41,47,138)" stroke-width="1" opacity="0.5019607843137255" d="M 218.5 27 L 219 29.5 L 218 29.5 L 218.5 27 Z " /><path fill="rgb(41,47,138)" stroke="rgb(41,47,138)" stroke-width="1" opacity="0.5019607843137255" d="M 52.5 28 L 53 30.5 L 52 30.5 L 52.5 28 Z " /><path fill="rgb(41,47,138)" stroke="rgb(41,47,138)" stroke-width="1" opacity="0.5019607843137255" d="M 63.5 28 L 62.5 30 L 63.5 28 Z " /><path fill="rgb(41,47,138)" stroke="rgb(41,47,138)" stroke-width="1" opacity="0.5019607843137255" d="M 106.5 28 L 107 30.5 L 106 30.5 L 106.5 28 Z " /><path fill="rgb(41,47,138)" stroke="rgb(41,47,138)" stroke-width="1" opacity="0.5019607843137255" d="M 9.5 29 L 10 31.5 L 9 31.5 L 9.5 29 Z " /><path fill="rgb(41,47,138)" stroke="rgb(41,47,138)" stroke-width="1" opacity="0.5019607843137255" d="M 228.5 29 L 229.5 32 L 233.5 30 L 233.5 31 L 228 33 L 228.5 29 Z " /><path fill="rgb(41,47,138)" stroke="rgb(41,47,138)" stroke-width="1" opacity="0.5019607843137255" d="M 42.5 30 L 43 31.5 L 43 33.5 L 42.5 35 L 41 32.5 L 42.5 30 Z " /><path fill="rgb(41,47,138)" stroke="rgb(41,47,138)" stroke-width="1" opacity="0.5019607843137255" d="M 153.5 30 L 156 30.5 L 150.5 33 L 151.5 31 L 153.5 30 Z " /><path fill="rgb(41,47,138)" stroke="rgb(41,47,138)" stroke-width="1" opacity="0.5019607843137255" d="M 165.5 30 L 171 32.5 L 169.5 32 L 165.5 31 L 165.5 30 Z " /><path fill="rgb(41,47,138)" stroke="rgb(41,47,138)" stroke-width="1" opacity="0.5019607843137255" d="M 190.5 30 L 193 30.5 L 190.5 31 L 190.5 30 Z " /><path fill="rgb(41,47,138)" stroke="rgb(41,47,138)" stroke-width="1" opacity="0.5019607843137255" d="M 201.5 30 L 204 30.5 L 201.5 31 L 201.5 30 Z " /><path fill="rgb(41,47,138)" stroke="rgb(41,47,138)" stroke-width="1" opacity="0.5019607843137255" d="M 18.5 31 L 20 33.5 L 20 44.5 L 19 44.5 Q 19.7 34.9 18.5 31 Z " /><path fill="rgb(41,47,138)" stroke="rgb(41,47,138)" stroke-width="1" opacity="0.5019607843137255" d="M 61.5 31 L 57.5 36 L 61.5 31 Z " /><path fill="rgb(41,47,138)" stroke="rgb(41,47,138)" stroke-width="1" opacity="0.5019607843137255" d="M 122.5 31 L 123 33.5 L 122 33.5 L 122.5 31 Z " /><path fill="rgb(41,47,138)" stroke="rgb(41,47,138)" stroke-width="1" opacity="0.5019607843137255" d="M 187.5 31 L 189 31.5 L 186.5 33 L 187.5 31 Z " /><path fill="rgb(41,47,138)" stroke="rgb(41,47,138)" stroke-width="1" opacity="0.5019607843137255" d="M 217.5 31 L 218 33.5 L 217 33.5 L 217.5 31 Z " /><path fill="rgb(41,47,138)" stroke="rgb(41,47,138)" stroke-width="1" opacity="0.5019607843137255" d="M 207.5 32 L 211 36.5 L 209 35.5 L 207.5 32 Z " /><path fill="rgb(41,47,138)" stroke="rgb(41,47,138)" stroke-width="1" opacity="0.5019607843137255" d="M 8.5 33 L 9 35.5 L 8 35.5 L 8.5 33 Z " /><path fill="rgb(41,47,138)" stroke="rgb(41,47,138)" stroke-width="1" opacity="0.5019607843137255" d="M 51.5 33 L 52 35.5 L 51 35.5 L 51.5 33 Z " /><path fill="rgb(41,47,138)" stroke="rgb(41,47,138)" stroke-width="1" opacity="0.5019607843137255" d="M 148.5 33 L 146.5 36 L 148.5 33 Z " /><path fill="rgb(41,47,138)" stroke="rgb(41,47,138)" stroke-width="1" opacity="0.5019607843137255" d="M 184.5 33 L 182.5 36 L 184.5 33 Z " /><path fill="rgb(41,47,138)" stroke="rgb(41,47,138)" stroke-width="1" opacity="0.5019607843137255" d="M 17.5 34 L 18 36.5 L 17 36.5 L 17.5 34 Z " /><path fill="rgb(41,47,138)" stroke="rgb(41,47,138)" stroke-width="1" opacity="0.5019607843137255" d="M 40.5 34 L 42 38.5 L 41 38.5 L 40.5 36 L 35.5 46 L 35 44.5 L 40.5 34 Z " /><path fill="rgb(41,47,138)" stroke="rgb(41,47,138)" stroke-width="1" opacity="0.5019607843137255" d="M 108.5 34 L 111 38 L 55.5 38 L 55 36.5 L 56.5 37 L 110 36.5 L 108.5 34 Z " /><path fill="rgb(41,47,138)" stroke="rgb(41,47,138)" stroke-width="1" opacity="0.5019607843137255" d="M 133.5 34 L 134 36.5 L 133 36.5 L 133.5 34 Z " /><path fill="rgb(41,47,138)" stroke="rgb(41,47,138)" stroke-width="1" opacity="0.5019607843137255" d="M 172.5 34 L 173.5 36 L 172.5 34 Z " /><path fill="rgb(41,47,138)" stroke="rgb(41,47,138)" stroke-width="1" opacity="0.5019607843137255" d="M 121.5 35 L 122 37.5 L 121 37.5 L 121.5 35 Z " /><path fill="rgb(41,47,138)" stroke="rgb(41,47,138)" stroke-width="1" opacity="0.5019607843137255" d="M 245.5 35 L 246 38.5 L 245 38.5 L 245.5 35 Z " /><path fill="rgb(41,47,138)" stroke="rgb(41,47,138)" stroke-width="1" opacity="0.5019607843137255" d="M 157.5 36 L 159 36.5 L 155.5 39 L 157.5 36 Z " /><path fill="rgb(41,47,138)" stroke="rgb(41,47,138)" stroke-width="1" opacity="0.5019607843137255" d="M 162.5 36 Q 165.8 36.8 165 41.5 L 164 41.5 Q 164.4 36.8 162.5 36 Z " /><path fill="rgb(41,47,138)" stroke="rgb(41,47,138)" stroke-width="1" opacity="0.5019607843137255" d="M 216.5 36 L 217 38.5 L 216 38.5 L 216.5 36 Z " /><path fill="rgb(41,47,138)" stroke="rgb(41,47,138)" stroke-width="1" opacity="0.5019607843137255" d="M 145.5 37 L 145 38.5 L 143.5 43 L 143 40.5 L 145.5 37 Z " /><path fill="rgb(41,47,138)" stroke="rgb(41,47,138)" stroke-width="1" opacity="0.5019607843137255" d="M 174.5 37 L 175 39.5 L 174 39.5 L 174.5 37 Z " /><path fill="rgb(41,47,138)" stroke="rgb(41,47,138)" stroke-width="1" opacity="0.5019607843137255" d="M 181.5 37 L 181 38.5 L 179.5 42 L 179 40.5 L 181.5 37 Z " /><path fill="rgb(41,47,138)" stroke="rgb(41,47,138)" stroke-width="1" opacity="0.5019607843137255" d="M 193.5 37 L 195 37.5 L 191 40.5 L 189.5 44 L 189 42.5 L 193.5 37 Z " /><path fill="rgb(41,47,138)" stroke="rgb(41,47,138)" stroke-width="1" opacity="0.5019607843137255" d="M 230.5 37 L 233 37.5 L 227.5 41 L 230.5 37 Z " /><path fill="rgb(41,47,138)" stroke="rgb(41,47,138)" stroke-width="1" opacity="0.5019607843137255" d="M 7.5 38 L 8 40.5 L 7 40.5 L 7.5 38 Z " /><path fill="rgb(41,47,138)" stroke="rgb(41,47,138)" stroke-width="1" opacity="0.5019607843137255" d="M 50.5 38 L 51 40.5 L 50 40.5 L 50.5 38 Z " /><path fill="rgb(41,47,138)" stroke="rgb(41,47,138)" stroke-width="1" opacity="0.5019607843137255" d="M 16.5 39 L 17 42.5 L 16 42.5 L 16.5 39 Z " /><path fill="rgb(41,47,138)" stroke="rgb(41,47,138)" stroke-width="1" opacity="0.5019607843137255" d="M 132.5 39 L 133 41.5 L 132 41.5 L 132.5 39 Z " /><path fill="rgb(41,47,138)" stroke="rgb(41,47,138)" stroke-width="1" opacity="0.5019607843137255" d="M 201.5 39 L 209 40.5 L 202.5 41 L 201.5 39 Z " /><path fill="rgb(41,47,138)" stroke="rgb(41,47,138)" stroke-width="1" opacity="0.5019607843137255" d="M 27.5 40 L 29 42.5 L 27 43 L 27.5 40 Z " /><path fill="rgb(41,47,138)" stroke="rgb(41,47,138)" stroke-width="1" opacity="0.5019607843137255" d="M 120.5 40 L 121 42.5 L 120 42.5 L 120.5 40 Z " /><path fill="rgb(41,47,138)" stroke="rgb(41,47,138)" stroke-width="1" opacity="0.5019607843137255" d="M 215.5 41 L 216 43.5 L 215 43.5 L 215.5 41 Z " /><path fill="rgb(41,47,138)" stroke="rgb(41,47,138)" stroke-width="1" opacity="0.5019607843137255" d="M 6.5 42 L 7 44.5 L 6 44.5 L 6.5 42 Z " /><path fill="rgb(41,47,138)" stroke="rgb(41,47,138)" stroke-width="1" opacity="0.5019607843137255" d="M 49.5 42 L 50 44.5 L 49 44.5 L 49.5 42 Z " /><path fill="rgb(41,47,138)" stroke="rgb(41,47,138)" stroke-width="1" opacity="0.5019607843137255" d="M 233.5 42 L 234 45.5 L 233 45.5 L 233.5 42 Z " /><path fill="rgb(41,47,138)" stroke="rgb(41,47,138)" stroke-width="1" opacity="0.5019607843137255" d="M 131.5 43 L 132 46.5 L 131 46.5 L 131.5 43 Z " /><path fill="rgb(41,47,138)" stroke="rgb(41,47,138)" stroke-width="1" opacity="0.5019607843137255" d="M 174.5 43 L 175 46.5 L 174 46.5 L 174.5 43 Z " /><path fill="rgb(41,47,138)" stroke="rgb(41,47,138)" stroke-width="1" opacity="0.5019607843137255" d="M 178.5 43 L 179 49.5 L 178 49.5 L 178.5 43 Z " /><path fill="rgb(41,47,138)" stroke="rgb(41,47,138)" stroke-width="1" opacity="0.5019607843137255" d="M 39.5 44 L 40 46.5 L 39 46.5 L 39.5 44 Z " /><path fill="rgb(41,47,138)" stroke="rgb(41,47,138)" stroke-width="1" opacity="0.5019607843137255" d="M 119.5 44 L 120 46.5 L 119 46.5 L 119.5 44 Z " /><path fill="rgb(41,47,138)" stroke="rgb(41,47,138)" stroke-width="1" opacity="0.5019607843137255" d="M 225.5 44 L 226 46.5 L 225 46.5 L 225.5 44 Z " /><path fill="rgb(41,47,138)" stroke="rgb(41,47,138)" stroke-width="1" opacity="0.5019607843137255" d="M 15.5 45 L 16 47.5 L 15 47.5 L 15.5 45 Z " /><path fill="rgb(41,47,138)" stroke="rgb(41,47,138)" stroke-width="1" opacity="0.5019607843137255" d="M 243.5 45 L 244 48.5 L 243 48.5 L 243.5 45 Z " /><path fill="rgb(41,47,138)" stroke="rgb(41,47,138)" stroke-width="1" opacity="0.5019607843137255" d="M 5.5 47 L 6 49.5 L 5 49.5 L 5.5 47 Z " /><path fill="rgb(41,47,138)" stroke="rgb(41,47,138)" stroke-width="1" opacity="0.5019607843137255" d="M 48.5 47 L 49 49.5 L 48 49.5 L 48.5 47 Z " /><path fill="rgb(41,47,138)" stroke="rgb(41,47,138)" stroke-width="1" opacity="0.5019607843137255" d="M 153.5 47 L 156.5 52 Q 161.5 53 162.5 50 L 169.5 50 L 169.5 51 L 162.5 51 Q 161.5 54 156.5 53 L 154 52 L 153.5 47 Z " /><path fill="rgb(41,47,138)" stroke="rgb(41,47,138)" stroke-width="1" opacity="0.5019607843137255" d="M 199.5 47 L 200 48.5 L 197 50.5 L 199.5 47 Z " /><path fill="rgb(41,47,138)" stroke="rgb(41,47,138)" stroke-width="1" opacity="0.5019607843137255" d="M 203.5 47 L 208 47.5 L 203.5 48 L 203.5 47 Z " /><path fill="rgb(41,47,138)" stroke="rgb(41,47,138)" stroke-width="1" opacity="0.5019607843137255" d="M 232.5 47 L 233 49.5 L 232 49.5 L 232.5 47 Z " /><path fill="rgb(41,47,138)" stroke="rgb(41,47,138)" stroke-width="1" opacity="0.5019607843137255" d="M 209.5 48 L 210 49.5 L 203.5 57 L 208 51.5 L 209.5 48 Z " /><path fill="rgb(41,47,138)" stroke="rgb(41,47,138)" stroke-width="1" opacity="0.5019607843137255" d="M 224.5 48 L 225 51.5 L 224 51.5 L 224.5 48 Z " /><path fill="rgb(41,47,138)" stroke="rgb(41,47,138)" stroke-width="1" opacity="0.5019607843137255" d="M 38.5 49 L 39 51.5 L 38 51.5 L 38.5 49 Z " /><path fill="rgb(41,47,138)" stroke="rgb(41,47,138)" stroke-width="1" opacity="0.5019607843137255" d="M 118.5 49 L 119 51.5 L 118 51.5 L 118.5 49 Z " /><path fill="rgb(41,47,138)" stroke="rgb(41,47,138)" stroke-width="1" opacity="0.5019607843137255" d="M 130.5 49 L 131 51.5 L 130 51.5 L 130.5 49 Z " /><path fill="rgb(41,47,138)" stroke="rgb(41,47,138)" stroke-width="1" opacity="0.5019607843137255" d="M 189.5 49 L 190.5 51 L 189.5 49 Z " /><path fill="rgb(41,47,138)" stroke="rgb(41,47,138)" stroke-width="1" opacity="0.5019607843137255" d="M 14.5 50 L 15 52.5 L 14 52.5 L 14.5 50 Z " /><path fill="rgb(41,47,138)" stroke="rgb(41,47,138)" stroke-width="1" opacity="0.5019607843137255" d="M 20.5 50 L 21 57.5 L 20 57.5 L 20.5 50 Z " /><path fill="rgb(41,47,138)" stroke="rgb(41,47,138)" stroke-width="1" opacity="0.5019607843137255" d="M 213.5 50 L 214 52.5 L 213 52.5 L 213.5 50 Z " /><path fill="rgb(41,47,138)" stroke="rgb(41,47,138)" stroke-width="1" opacity="0.5019607843137255" d="M 242.5 50 L 243 52.5 L 242 52.5 L 242.5 50 Z " /><path fill="rgb(41,47,138)" stroke="rgb(41,47,138)" stroke-width="1" opacity="0.5019607843137255" d="M 4.5 51 L 5 54.5 L 4 54.5 L 4.5 51 Z " /><path fill="rgb(41,47,138)" stroke="rgb(41,47,138)" stroke-width="1" opacity="0.5019607843137255" d="M 47.5 51 L 48 53.5 L 47 53.5 L 47.5 51 Z " /><path fill="rgb(41,47,138)" stroke="rgb(41,47,138)" stroke-width="1" opacity="0.5019607843137255" d="M 172.5 51 L 173 52.5 L 168 56.5 L 172.5 51 Z " /><path fill="rgb(41,47,138)" stroke="rgb(41,47,138)" stroke-width="1" opacity="0.5019607843137255" d="M 179.5 51 L 181 53.5 L 179 52.5 L 179.5 51 Z " /><path fill="rgb(41,47,138)" stroke="rgb(41,47,138)" stroke-width="1" opacity="0.5019607843137255" d="M 192.5 51 L 196 51.5 L 192.5 52 L 192.5 51 Z " /><path fill="rgb(41,47,138)" stroke="rgb(41,47,138)" stroke-width="1" opacity="0.5019607843137255" d="M 231.5 52 L 232 54.5 L 231 54.5 L 231.5 52 Z " /><path fill="rgb(41,47,138)" stroke="rgb(41,47,138)" stroke-width="1" opacity="0.5019607843137255" d="M 37.5 53 L 38 55.5 L 37 55.5 L 37.5 53 Z " /><path fill="rgb(41,47,138)" stroke="rgb(41,47,138)" stroke-width="1" opacity="0.5019607843137255" d="M 129.5 53 L 130 55.5 L 129 55.5 L 129.5 53 Z " /><path fill="rgb(41,47,138)" stroke="rgb(41,47,138)" stroke-width="1" opacity="0.5019607843137255" d="M 223.5 53 L 224 55.5 L 223 55.5 L 223.5 53 Z " /><path fill="rgb(41,47,138)" stroke="rgb(41,47,138)" stroke-width="1" opacity="0.5019607843137255" d="M 117.5 54 L 118 58 L 127.5 58 L 128.5 57 L 127.5 59 L 118.5 59 L 117 57.5 L 117.5 54 Z " /><path fill="rgb(41,47,138)" stroke="rgb(41,47,138)" stroke-width="1" opacity="0.5019607843137255" d="M 145.5 54 L 151 57.5 L 149.5 58 L 145.5 54 Z " /><path fill="rgb(41,47,138)" stroke="rgb(41,47,138)" stroke-width="1" opacity="0.5019607843137255" d="M 13.5 55 L 14 57.5 L 12.5 59 L 4.5 59 L 3.5 57 L 4.5 58 L 13 58 L 13.5 55 Z " /><path fill="rgb(41,47,138)" stroke="rgb(41,47,138)" stroke-width="1" opacity="0.5019607843137255" d="M 212.5 55 L 213 58 L 221.5 58 L 222.5 57 L 221.5 59 L 213.5 59 L 212 57.5 L 212.5 55 Z " /><path fill="rgb(41,47,138)" stroke="rgb(41,47,138)" stroke-width="1" opacity="0.5019607843137255" d="M 241.5 55 L 242 57.5 L 241 57.5 L 241.5 55 Z " /><path fill="rgb(41,47,138)" stroke="rgb(41,47,138)" stroke-width="1" opacity="0.5019607843137255" d="M 46.5 56 L 47 57.5 L 45.5 59 L 37.5 59 L 37.5 58 L 45.5 58 L 46.5 56 Z " /><path fill="rgb(41,47,138)" stroke="rgb(41,47,138)" stroke-width="1" opacity="0.5019607843137255" d="M 183.5 56 L 186 57.5 L 184.5 58 L 183.5 56 Z " /><path fill="rgb(41,47,138)" stroke="rgb(41,47,138)" stroke-width="1" opacity="0.5019607843137255" d="M 230.5 56 L 231 58 L 240 58.5 L 231.5 59 L 230.5 56 Z " /><path fill="rgb(41,47,138)" stroke="rgb(41,47,138)" stroke-width="1" opacity="0.5019607843137255" d="M 22.5 58 L 28 58.5 L 22.5 59 L 22.5 58 Z " /><path fill="rgb(41,47,138)" stroke="rgb(41,47,138)" stroke-width="1" opacity="0.5019607843137255" d="M 152.5 58 L 164 58.5 L 152.5 59 L 152.5 58 Z " /><path fill="rgb(41,47,138)" stroke="rgb(41,47,138)" stroke-width="1" opacity="0.5019607843137255" d="M 187.5 58 L 199 58.5 L 187.5 59 L 187.5 58 Z " /></svg>