<svg width="711" height="145" version="1.1" xmlns="http://www.w3.org/2000/svg" desc="Created with imagetracer.js version 1.2.6" ><path fill="rgb(234,82,52)" stroke="rgb(234,82,52)" stroke-width="1" opacity="0.9372549019607843" d="M 63.5 19 L 80.5 19 L 81 20.5 L 65 55.5 L 61 68 L 97 55 L 95 59.5 L 95 61.5 L 69.5 125 L 69 121.5 L 79 74.5 L 77.5 75 L 40.5 91 L 41 89.5 L 62 20.5 L 63.5 19 Z " /><path fill="rgb(0,0,0)" stroke="rgb(0,0,0)" stroke-width="1" opacity="0" d="M 145 0 L 174 0 L 174 72.5 L 174.5 73 L 193 73 L 193 50 L 216.5 50 Q 224.5 47.5 229 41.5 Q 235.3 33.8 233 17.5 Q 231.1 8.4 224.5 4 L 217 0.5 L 260 0 L 260 73 L 313 73 L 313 56 L 279 56 L 279 0 L 341 0 L 341 72.5 L 341.5 73 L 360 73 L 360.5 33 L 388.5 73 L 407.5 73 L 408 72.5 L 408 0.5 L 408.5 0 L 711 0 L 711 104.5 Q 710.9 105.6 705.5 105 L 701 107 L 699.5 110 L 699 106 Q 694.4 104.8 693 107.5 L 693 109.5 L 694 114.5 L 693 115.5 L 693 132.5 L 693 134.5 L 694 138.5 L 693 140.5 L 694 143.5 L 693.5 145 L 675.5 145 L 675.5 144 L 677.5 144 L 684 137.5 L 686 132.5 L 679 132 L 679 134.5 L 674.5 139 Q 671.3 141.3 664.5 140 L 659 135.5 Q 656.2 132.5 657 127 L 685.5 127 L 686 126.5 L 686 119.5 Q 684.5 111 678.5 107 Q 673.8 103.2 663.5 105 L 655 110.5 L 651 118.5 L 651 131.5 Q 652.9 139.1 658.5 143 L 662 144.5 L 635.5 145 L 636 143.5 L 647 106 Q 642.4 104.8 641 107.5 L 632.5 135 L 625 106 Q 619.6 104.5 618 107.5 L 610.5 136 L 602 106 L 596.5 106 L 596 107.5 L 608 144.5 L 582.5 145 L 582.5 144 L 590 138.5 Q 594.6 131.6 593 118.5 Q 591.2 110.8 585.5 107 Q 580.5 103 569.5 105 L 561 110.5 L 557 120.5 L 557 129.5 Q 558.2 137.8 563.5 142 L 569 144.5 L 521.5 145 L 522 143.5 L 522 121 L 540.5 121 Q 547.4 119.5 551 114.5 Q 554 110.5 553 102.5 L 548.5 94 L 541.5 91 L 515 91 L 515 143.5 L 516 144.5 L 488.5 145 L 489 143.5 L 489 140 L 485 139.5 L 485 115.5 L 483 109.5 L 480.5 107 L 476.5 105 L 463.5 105 L 455 111.5 L 454 118 L 460 118 L 460 115.5 L 463.5 111 Q 467 108.5 474.5 110 L 478 112.5 L 479 118.5 L 475.5 121 L 460.5 123 L 454 127.5 L 452 135.5 Q 453.3 141.3 457.5 144 L 459 144.5 L 444 145 L 444 106.5 L 439 106 L 439 145 L 422.5 145 L 422.5 144 L 428 142 L 431 135.5 L 431 131.5 L 427.5 126 Q 421.4 121.6 411.5 121 L 407 117.5 Q 405.8 112.3 408.5 111 Q 411.7 108.7 418.5 110 L 423 113.5 L 424 118 Q 428.6 119.3 430 116.5 Q 429.1 109.9 424.5 107 Q 419.5 103 408.5 105 L 402 109.5 L 400 116.5 L 401 120.5 L 405.5 125 L 421.5 129 L 424 131.5 L 425 134.5 L 421.5 139 Q 418.3 141.3 411.5 140 L 407 136.5 L 404.5 131 Q 397.3 128.7 400 136.5 L 403 142 L 408 144.5 L 384.5 145 L 384.5 144 L 391 139.5 L 394 132 Q 388.6 130.5 387 133.5 L 384.5 138 Q 381.2 141.2 373.5 140 L 368 136.5 L 365 127 L 393.5 127 L 394 126.5 L 394 118.5 Q 392.2 110.8 386.5 107 Q 381.8 103.2 371.5 105 Q 364.6 106.6 362 112.5 Q 357.6 118.6 359 130.5 Q 360.5 139 366.5 143 L 370 144.5 L 351.5 145 L 352 143.5 L 352 115.5 L 349 108 L 343.5 105 L 332.5 105 L 326.5 109 L 326 106 L 320.5 106 L 320 106.5 L 320 143.5 L 320.5 145 L 302 144.5 L 311 137.5 L 314 127.5 L 314 121.5 L 309 109 L 301.5 105 L 289.5 105 L 281 111.5 Q 275.9 118.4 278 132.5 Q 279.8 139.7 285.5 143 L 289 144.5 L 270 145 L 270 91.5 Q 270 90.5 265.5 91 Q 262.8 92.3 264 97.5 L 264 101.5 L 265 103.5 L 264 106.5 Q 266.3 107.8 263.5 109 Q 258.8 103.2 246.5 105 L 239 109 L 235 116.5 L 234 129.5 L 236 136.5 L 241.5 143 L 245 144.5 L 226 145 L 226 113.5 L 221.5 107 Q 217.2 103.3 207.5 105 L 200.5 110 L 200 106 L 195 106.5 L 195 143.5 L 195.5 145 L 183 145 L 183 91.5 L 182.5 91 L 177 91 L 177 145 L 144.5 145 L 145 143.5 L 145 0 Z M 439 91 L 439 99 Q 444 100 445 98 L 445 91 L 439 91 Z " /><path fill="rgb(0,0,0)" stroke="rgb(0,0,0)" stroke-width="1" opacity="0" d="M 361 0 L 389 0 L 389 39.5 L 386 37.5 L 361 0 Z " /><path fill="rgb(0,0,0)" stroke="rgb(0,0,0)" stroke-width="1" opacity="0" d="M 193 16 L 209.5 16 L 214 20.5 Q 215.8 30.3 210.5 33 L 208.5 34 L 193 34 L 193 16 Z " /><path fill="rgb(0,0,0)" stroke="rgb(0,0,0)" stroke-width="1" opacity="0" d="M 522 96 L 536.5 96 Q 543.1 96.9 546 101.5 L 547 107.5 L 545 113 L 537.5 116 L 522 116 L 522 96 Z " /><path fill="rgb(0,0,0)" stroke="rgb(0,0,0)" stroke-width="1" opacity="0" d="M 208.5 110 L 215.5 110 L 219 112 L 221 118.5 L 221 145 L 200 145 L 200 121.5 L 203 113 L 208.5 110 Z " /><path fill="rgb(0,0,0)" stroke="rgb(0,0,0)" stroke-width="1" opacity="0" d="M 248.5 110 L 255.5 110 L 261 113 L 264 118.5 Q 262.8 123.3 265 124.5 Q 262.5 126 264 131.5 L 259.5 138 Q 256.6 141.6 248.5 140 L 242 134.5 Q 238.9 130.1 240 121.5 Q 241.1 114.1 246.5 111 L 248.5 110 Z " /><path fill="rgb(0,0,0)" stroke="rgb(0,0,0)" stroke-width="1" opacity="0" d="M 291.5 110 Q 303.3 108.2 306 115.5 Q 308.9 120.1 308 128.5 Q 306.4 135.4 301.5 139 L 292.5 140 L 286 135.5 L 284 131.5 L 283 123.5 L 284 118.5 L 288.5 112 L 291.5 110 Z " /><path fill="rgb(0,0,0)" stroke="rgb(0,0,0)" stroke-width="1" opacity="0" d="M 333.5 110 Q 343 108 345 113.5 L 346 115.5 L 346 145 L 326 145 L 326 119.5 Q 327.3 113.8 331.5 111 L 333.5 110 Z " /><path fill="rgb(0,0,0)" stroke="rgb(0,0,0)" stroke-width="1" opacity="0" d="M 373.5 110 Q 384.6 108.4 387 115.5 L 388 122 L 365.5 122 L 365 120.5 Q 366.5 114 371.5 111 L 373.5 110 Z " /><path fill="rgb(0,0,0)" stroke="rgb(0,0,0)" stroke-width="1" opacity="0" d="M 571.5 110 L 579.5 110 L 585 114.5 Q 588.6 119.9 587 130.5 L 582.5 138 Q 579.2 141.2 571.5 140 L 565 134.5 Q 561.7 129.8 563 120.5 Q 564.5 114 569.5 111 L 571.5 110 Z " /><path fill="rgb(0,0,0)" stroke="rgb(0,0,0)" stroke-width="1" opacity="0" d="M 664.5 110 Q 675.3 108.2 678 114.5 L 680 122 L 657.5 122 L 657 119.5 L 660 113 L 664.5 110 Z " /><path fill="rgb(0,0,0)" stroke="rgb(0,0,0)" stroke-width="1" opacity="0" d="M 710.5 110 L 711 145 L 699 145 L 699 120.5 Q 700.3 114.8 704.5 112 L 710.5 110 Z " /><path fill="rgb(0,0,0)" stroke="rgb(0,0,0)" stroke-width="1" opacity="0" d="M 621.5 116 L 623 117.5 L 623 121.5 L 630 144.5 L 614 145 L 621.5 116 Z " /><path fill="rgb(0,0,0)" stroke="rgb(0,0,0)" stroke-width="1" opacity="0" d="M 477.5 125 L 479 125.5 L 479 132.5 L 474.5 138 Q 470.8 141.3 462.5 140 L 459 137.5 L 458 132.5 L 460.5 129 L 464.5 127 Q 472.9 127.9 477.5 125 Z " /><path fill="rgb(0,0,0)" stroke="rgb(0,0,0)" stroke-width="1" opacity="0" d="M 263.5 141 L 265 141.5 L 265 143.5 Q 265.5 146.5 258.5 145 L 258.5 144 L 263.5 141 Z " /><path fill="rgb(0,0,0)" stroke="rgb(0,0,0)" stroke-width="1" opacity="0" d="M 478.5 141 L 481 144.5 L 472.5 145 L 472.5 144 L 478.5 141 Z " /><path fill="rgb(254,242,18)" stroke="rgb(254,242,18)" stroke-width="1" opacity="0.984313725490196" d="M 0 0 L 145 0 L 145 143.5 L 143.5 145 L 0 145 L 0 0 Z M 1 1 L 1 143 L 144 143 L 144 1 L 1 1 Z " /><path fill="rgb(0,175,238)" stroke="rgb(0,175,238)" stroke-width="1" opacity="0.9333333333333333" d="M 174 0 L 216.5 0 Q 224.5 2.5 229 8.5 Q 235.2 15.8 233 31.5 Q 231.8 39.8 226.5 44 L 216.5 50 L 193 50 L 193 73 L 174 73 L 174 0 Z M 193 16 L 193 34 L 209 34 L 211 33 Q 216 30 214 21 L 210 16 L 193 16 Z " /><path fill="rgb(0,175,238)" stroke="rgb(0,175,238)" stroke-width="1" opacity="0.9333333333333333" d="M 260 0 L 279 0 L 279 56 L 313 56 L 313 73 L 260 73 L 260 0 Z " /><path fill="rgb(0,175,238)" stroke="rgb(0,175,238)" stroke-width="1" opacity="0.9333333333333333" d="M 341 0 L 360.5 0 L 361 1.5 L 388.5 40 L 389 0 L 407.5 0 L 408 0.5 L 408 73 L 388.5 73 L 386 70.5 L 360.5 33 L 360 73 L 341.5 73 L 341 72.5 L 341 0 Z " /><path fill="rgb(0,175,238)" stroke="rgb(0,175,238)" stroke-width="1" opacity="0.9333333333333333" d="M 37.5 49 L 48.5 49 L 52 51.5 L 49.5 60 Q 46.3 56.2 37.5 58 L 29 61 L 29 52.5 L 30.5 52 L 37.5 49 Z " /><path fill="rgb(0,175,238)" stroke="rgb(0,175,238)" stroke-width="1" opacity="0.9333333333333333" d="M 69.5 49 L 77.5 49 Q 82.3 53.2 92.5 52 Q 96.9 46.9 108.5 49 L 115 52.5 L 115 60.5 L 113.5 61 Q 109.7 56.3 99.5 58 L 96.5 60 L 96 58.5 L 98 54 L 81.5 60 L 78.5 58 L 67.5 58 L 64.5 60 L 65 58.5 L 69.5 49 Z " /><path fill="rgb(0,175,238)" stroke="rgb(0,175,238)" stroke-width="1" opacity="0.9333333333333333" d="M 40.5 71 L 46 71 L 46 73.5 L 44 80 Q 34.5 80 29 84 L 29 75.5 L 30.5 74 L 40.5 71 Z " /><path fill="rgb(0,175,238)" stroke="rgb(0,175,238)" stroke-width="1" opacity="0.9333333333333333" d="M 99.5 71 Q 110.2 70.3 115 75.5 L 114.5 84 Q 110.2 79.8 101.5 80 L 93.5 84 L 86.5 84 L 87 82.5 L 90.5 75 L 99.5 71 Z " /><path fill="rgb(0,175,238)" stroke="rgb(0,175,238)" stroke-width="1" opacity="0.9333333333333333" d="M 76.5 75 Q 79.9 74.1 78 79.5 Q 76.8 82.3 75.5 80 L 70.5 80 L 61.5 84 L 58.5 84 L 58.5 83 L 76.5 75 Z " /><path fill="rgb(0,175,238)" stroke="rgb(0,175,238)" stroke-width="1" opacity="0.9333333333333333" d="M 37.5 94 L 47.5 94 L 57.5 98 L 67.5 94 L 74.5 94 L 74 95.5 L 73 103 L 68.5 103 L 59.5 107 L 53.5 107 L 46.5 103 L 37.5 103 L 29.5 107 L 29 98.5 L 31.5 96 L 37.5 94 Z " /><path fill="rgb(0,175,238)" stroke="rgb(0,175,238)" stroke-width="1" opacity="0.9333333333333333" d="M 97.5 94 Q 109.9 92.3 115 97 L 114.5 107 Q 110.5 101.5 99.5 103 L 92.5 107 L 85.5 107 L 78 103.5 L 81 96 L 90.5 98 L 97.5 94 Z " /><path fill="rgb(255,242,18)" stroke="rgb(255,242,18)" stroke-width="1" opacity="1" d="M 1 1 L 144 1 L 144 143 L 1 143 L 1 1 Z M 64 19 L 62 21 L 62 24 L 53 51 L 45 48 Q 35 48 29 52 L 30 62 L 38 58 Q 47 56 50 61 L 47 71 L 39 71 L 31 74 L 29 76 L 29 84 L 43 80 L 41 90 L 41 91 L 54 85 L 59 85 L 68 81 Q 72 82 74 80 L 77 81 L 75 94 Q 65 93 61 97 Q 52 98 49 94 Q 35 92 29 97 L 30 107 L 39 103 L 46 103 L 54 107 L 61 107 L 70 103 L 73 103 L 69 122 L 70 125 L 79 104 L 86 107 L 94 107 L 101 103 Q 111 102 115 107 L 115 98 L 109 94 Q 97 92 93 97 Q 85 98 82 96 L 85 86 Q 86 83 88 85 L 95 84 L 99 81 L 104 80 L 112 82 L 114 84 L 115 84 L 115 74 L 108 71 L 99 71 L 90 75 L 95 62 L 100 58 Q 110 57 115 62 L 115 53 L 110 49 L 105 48 L 97 49 L 93 52 L 86 52 L 74 48 L 69 49 L 81 21 L 81 19 L 64 19 Z " /><path fill="rgb(255,242,18)" stroke="rgb(255,242,18)" stroke-width="1" opacity="1" d="M 68.5 58 Q 76.9 57.1 81 59 Q 82.1 61.7 79.5 61 L 60.5 69 L 61 67.5 Q 61.6 61.6 65.5 59 L 68.5 58 Z " /><path fill="rgb(40,98,117)" stroke="rgb(40,98,117)" stroke-width="1" opacity="0.25098039215686274" d="M 225.5 44 L 224.5 46 L 225.5 44 Z " /><path fill="rgb(40,98,117)" stroke="rgb(40,98,117)" stroke-width="1" opacity="0.25098039215686274" d="M 177 91 L 183 91.5 L 178 92 L 178 143.5 L 181.5 144 L 183 143.5 L 182.5 145 L 177 145 L 177 91 Z " /><path fill="rgb(40,98,117)" stroke="rgb(40,98,117)" stroke-width="1" opacity="0.25098039215686274" d="M 265.5 91 Q 270 90.5 270 91.5 L 270 145 L 265 144.5 L 269 144 L 269 92.5 L 265 92 L 264.5 98 L 264 92.5 L 265.5 91 Z " /><path fill="rgb(40,98,117)" stroke="rgb(40,98,117)" stroke-width="1" opacity="0.25098039215686274" d="M 439.5 91 L 445 91 L 445 97.5 Q 444 100 439.5 99 L 439.5 98 L 444 98 L 444 92 L 439.5 92 L 439.5 91 Z " /><path fill="rgb(40,98,117)" stroke="rgb(40,98,117)" stroke-width="1" opacity="0.25098039215686274" d="M 515 91 L 542 91.5 L 516 92 L 516 143.5 L 521 144 L 521.5 121 L 522 143.5 Q 521 146 516.5 145 L 515 143.5 L 515 91 Z " /><path fill="rgb(40,98,117)" stroke="rgb(40,98,117)" stroke-width="1" opacity="0.25098039215686274" d="M 543.5 92 L 550 95.5 L 551 97.5 L 546.5 94 Q 542.8 93.8 543.5 92 Z " /><path fill="rgb(40,98,117)" stroke="rgb(40,98,117)" stroke-width="1" opacity="0.25098039215686274" d="M 521.5 96 L 522 116 L 535 116.5 L 521 117 L 521.5 96 Z " /><path fill="rgb(40,98,117)" stroke="rgb(40,98,117)" stroke-width="1" opacity="0.25098039215686274" d="M 537.5 96 Q 544.1 95.4 546 99.5 L 547 103.5 L 546 103.5 Q 546.5 98.5 542.5 98 L 537.5 97 L 537.5 96 Z " /><path fill="rgb(40,98,117)" stroke="rgb(40,98,117)" stroke-width="1" opacity="0.25098039215686274" d="M 552.5 102 L 553 109.5 L 552 109.5 L 552.5 102 Z " /><path fill="rgb(40,98,117)" stroke="rgb(40,98,117)" stroke-width="1" opacity="0.25098039215686274" d="M 264.5 104 L 265 106.5 L 264 106.5 L 264.5 104 Z " /><path fill="rgb(40,98,117)" stroke="rgb(40,98,117)" stroke-width="1" opacity="0.25098039215686274" d="M 215.5 105 L 218 105.5 L 215.5 106 L 215.5 105 Z " /><path fill="rgb(40,98,117)" stroke="rgb(40,98,117)" stroke-width="1" opacity="0.25098039215686274" d="M 246.5 105 L 249 105.5 L 246.5 106 L 246.5 105 Z " /><path fill="rgb(40,98,117)" stroke="rgb(40,98,117)" stroke-width="1" opacity="0.25098039215686274" d="M 289.5 105 L 292 105.5 Q 285.2 106.7 282 111.5 L 280.5 114 L 281 112.5 L 285.5 107 L 289.5 105 Z " /><path fill="rgb(40,98,117)" stroke="rgb(40,98,117)" stroke-width="1" opacity="0.25098039215686274" d="M 299.5 105 L 302 105.5 L 299.5 106 L 299.5 105 Z " /><path fill="rgb(40,98,117)" stroke="rgb(40,98,117)" stroke-width="1" opacity="0.25098039215686274" d="M 332.5 105 L 335 105.5 L 325 111 L 325.5 106 L 326.5 109 L 332.5 105 Z " /><path fill="rgb(40,98,117)" stroke="rgb(40,98,117)" stroke-width="1" opacity="0.25098039215686274" d="M 341.5 105 L 349 108 L 351 113.5 L 350 113.5 L 350 111.5 L 345.5 107 L 341.5 106 L 341.5 105 Z " /><path fill="rgb(40,98,117)" stroke="rgb(40,98,117)" stroke-width="1" opacity="0.25098039215686274" d="M 371.5 105 L 374 105.5 L 371.5 106 L 371.5 105 Z " /><path fill="rgb(40,98,117)" stroke="rgb(40,98,117)" stroke-width="1" opacity="0.25098039215686274" d="M 380.5 105 L 383 105.5 L 380.5 106 L 380.5 105 Z " /><path fill="rgb(40,98,117)" stroke="rgb(40,98,117)" stroke-width="1" opacity="0.25098039215686274" d="M 408.5 105 L 411 105.5 L 408.5 106 L 408.5 105 Z " /><path fill="rgb(40,98,117)" stroke="rgb(40,98,117)" stroke-width="1" opacity="0.25098039215686274" d="M 418.5 105 L 421 105.5 L 418.5 106 L 418.5 105 Z " /><path fill="rgb(40,98,117)" stroke="rgb(40,98,117)" stroke-width="1" opacity="0.25098039215686274" d="M 463.5 105 L 467 105.5 Q 459.9 105.9 457 110.5 L 455.5 114 L 455 112.5 L 459.5 107 L 463.5 105 Z " /><path fill="rgb(40,98,117)" stroke="rgb(40,98,117)" stroke-width="1" opacity="0.25098039215686274" d="M 474.5 105 Q 480.4 105.6 483 109.5 L 484 113.5 L 483 113.5 L 480.5 108 L 474.5 106 L 474.5 105 Z " /><path fill="rgb(40,98,117)" stroke="rgb(40,98,117)" stroke-width="1" opacity="0.25098039215686274" d="M 569.5 105 L 572 105.5 L 569.5 106 L 569.5 105 Z " /><path fill="rgb(40,98,117)" stroke="rgb(40,98,117)" stroke-width="1" opacity="0.25098039215686274" d="M 578.5 105 Q 586.8 105.8 590 111.5 L 592 116.5 L 591 116.5 Q 589.8 110.8 585.5 108 L 578.5 106 L 578.5 105 Z " /><path fill="rgb(40,98,117)" stroke="rgb(40,98,117)" stroke-width="1" opacity="0.25098039215686274" d="M 663.5 105 L 666 105.5 L 663.5 106 L 663.5 105 Z " /><path fill="rgb(40,98,117)" stroke="rgb(40,98,117)" stroke-width="1" opacity="0.25098039215686274" d="M 672.5 105 Q 679.9 106.1 683 111.5 L 684 114.5 L 683 114.5 L 678.5 108 L 672.5 106 L 672.5 105 Z " /><path fill="rgb(40,98,117)" stroke="rgb(40,98,117)" stroke-width="1" opacity="0.25098039215686274" d="M 705.5 105 L 708 105.5 L 705.5 106 L 705.5 105 Z " /><path fill="rgb(40,98,117)" stroke="rgb(40,98,117)" stroke-width="1" opacity="0.25098039215686274" d="M 195.5 106 L 196 144 L 200 144.5 L 196.5 145 L 195 143.5 L 195.5 106 Z " /><path fill="rgb(40,98,117)" stroke="rgb(40,98,117)" stroke-width="1" opacity="0.25098039215686274" d="M 205.5 106 L 204.5 108 L 200.5 111 L 203.5 107 L 205.5 106 Z " /><path fill="rgb(40,98,117)" stroke="rgb(40,98,117)" stroke-width="1" opacity="0.25098039215686274" d="M 243.5 106 L 245 106.5 L 238 112.5 L 235.5 120 L 235 116.5 L 239 109 L 243.5 106 Z " /><path fill="rgb(40,98,117)" stroke="rgb(40,98,117)" stroke-width="1" opacity="0.25098039215686274" d="M 258.5 106 L 263.5 109 L 265 108.5 L 264.5 111 L 258.5 107 L 258.5 106 Z " /><path fill="rgb(40,98,117)" stroke="rgb(40,98,117)" stroke-width="1" opacity="0.25098039215686274" d="M 320.5 106 L 321 144 L 325 143.5 L 325 120.5 L 326 120.5 L 326 144.5 Q 326 145.5 321.5 145 L 320 143.5 L 320.5 106 Z " /><path fill="rgb(40,98,117)" stroke="rgb(40,98,117)" stroke-width="1" opacity="0.25098039215686274" d="M 406.5 106 L 405.5 108 L 403 109.5 L 401.5 114 L 401 111.5 L 404.5 107 L 406.5 106 Z " /><path fill="rgb(40,98,117)" stroke="rgb(40,98,117)" stroke-width="1" opacity="0.25098039215686274" d="M 566.5 106 L 568 106.5 L 560 113.5 L 559.5 115 L 559 113.5 L 563.5 108 L 566.5 106 Z " /><path fill="rgb(40,98,117)" stroke="rgb(40,98,117)" stroke-width="1" opacity="0.25098039215686274" d="M 601.5 106 L 604 114.5 L 603 114.5 L 601.5 106 Z " /><path fill="rgb(40,98,117)" stroke="rgb(40,98,117)" stroke-width="1" opacity="0.25098039215686274" d="M 642.5 106 L 642 107.5 L 639.5 116 L 639 113.5 L 642.5 106 Z " /><path fill="rgb(40,98,117)" stroke="rgb(40,98,117)" stroke-width="1" opacity="0.25098039215686274" d="M 660.5 106 L 662 106.5 L 656 110.5 L 653.5 115 L 653 113.5 L 657.5 108 L 660.5 106 Z " /><path fill="rgb(40,98,117)" stroke="rgb(40,98,117)" stroke-width="1" opacity="0.25098039215686274" d="M 698.5 106 L 699.5 110 L 701 109.5 L 698.5 113 L 698.5 106 Z " /><path fill="rgb(40,98,117)" stroke="rgb(40,98,117)" stroke-width="1" opacity="0.25098039215686274" d="M 703.5 106 L 702.5 108 L 701 107.5 L 703.5 106 Z " /><path fill="rgb(40,98,117)" stroke="rgb(40,98,117)" stroke-width="1" opacity="0.25098039215686274" d="M 221.5 107 L 225 111.5 L 223 110.5 L 221.5 107 Z " /><path fill="rgb(40,98,117)" stroke="rgb(40,98,117)" stroke-width="1" opacity="0.25098039215686274" d="M 305.5 107 L 309 109 L 312 115.5 L 311 115.5 L 305.5 107 Z " /><path fill="rgb(40,98,117)" stroke="rgb(40,98,117)" stroke-width="1" opacity="0.25098039215686274" d="M 367.5 107 L 363 112.5 L 360.5 119 L 360 116.5 L 367.5 107 Z " /><path fill="rgb(40,98,117)" stroke="rgb(40,98,117)" stroke-width="1" opacity="0.25098039215686274" d="M 386.5 107 L 390.5 112 L 386.5 107 Z " /><path fill="rgb(40,98,117)" stroke="rgb(40,98,117)" stroke-width="1" opacity="0.25098039215686274" d="M 424.5 107 Q 428.6 108.9 429 114.5 L 428 114.5 L 424.5 107 Z " /><path fill="rgb(40,98,117)" stroke="rgb(40,98,117)" stroke-width="1" opacity="0.25098039215686274" d="M 618.5 107 L 619 109.5 L 617.5 113 L 617 110.5 L 618.5 107 Z " /><path fill="rgb(40,98,117)" stroke="rgb(40,98,117)" stroke-width="1" opacity="0.25098039215686274" d="M 646.5 107 L 647 109.5 L 642.5 122 L 642 119.5 L 646.5 107 Z " /><path fill="rgb(40,98,117)" stroke="rgb(40,98,117)" stroke-width="1" opacity="0.25098039215686274" d="M 546.5 108 L 547 110.5 L 544.5 114 L 542.5 115 L 543.5 113 Q 545.8 113.8 545 111.5 L 546.5 108 Z " /><path fill="rgb(40,98,117)" stroke="rgb(40,98,117)" stroke-width="1" opacity="0.25098039215686274" d="M 625.5 108 L 626 110.5 L 625 110.5 L 625.5 108 Z " /><path fill="rgb(40,98,117)" stroke="rgb(40,98,117)" stroke-width="1" opacity="0.25098039215686274" d="M 208.5 109 Q 217.5 107.5 220 112.5 L 221 117.5 L 220 117.5 Q 220.6 112.4 217.5 111 L 208.5 110 L 203 113.5 L 201.5 116 L 202 114.5 L 204.5 111 L 208.5 109 Z " /><path fill="rgb(40,98,117)" stroke="rgb(40,98,117)" stroke-width="1" opacity="0.25098039215686274" d="M 249.5 109 Q 259.2 107.8 262 113.5 L 259.5 112 Q 256.5 109 249.5 110 L 249.5 109 Z " /><path fill="rgb(40,98,117)" stroke="rgb(40,98,117)" stroke-width="1" opacity="0.25098039215686274" d="M 292.5 109 Q 301.9 107.6 305 112.5 L 307 116.5 L 306 116.5 L 301.5 111 L 292.5 110 L 292.5 109 Z " /><path fill="rgb(40,98,117)" stroke="rgb(40,98,117)" stroke-width="1" opacity="0.25098039215686274" d="M 333.5 109 L 341 109.5 Q 331 108.5 328 114.5 L 326.5 119 L 326 116.5 L 331.5 110 L 333.5 109 Z " /><path fill="rgb(40,98,117)" stroke="rgb(40,98,117)" stroke-width="1" opacity="0.25098039215686274" d="M 373.5 109 Q 382.9 107.6 386 112.5 L 388 116.5 L 387 116.5 L 382.5 111 L 373.5 110 L 367 115.5 L 365.5 120 L 365 117.5 L 371.5 110 L 373.5 109 Z " /><path fill="rgb(40,98,117)" stroke="rgb(40,98,117)" stroke-width="1" opacity="0.25098039215686274" d="M 410.5 109 L 418 109.5 Q 410 108.5 407 112.5 Q 405.8 118.8 409.5 120 L 414 121.5 L 411.5 122 L 406 117.5 Q 404.8 111.3 408.5 110 L 410.5 109 Z " /><path fill="rgb(40,98,117)" stroke="rgb(40,98,117)" stroke-width="1" opacity="0.25098039215686274" d="M 465.5 109 L 474 109.5 L 465.5 110 L 461 113.5 L 460 118 L 454 118 L 454 115.5 L 455 115.5 L 455 117 L 459 117 Q 459.5 112.3 463.5 110 L 465.5 109 Z " /><path fill="rgb(40,98,117)" stroke="rgb(40,98,117)" stroke-width="1" opacity="0.25098039215686274" d="M 571.5 109 L 579 109.5 Q 568 108.5 565 115.5 L 563.5 120 L 563 117.5 L 567.5 111 L 571.5 109 Z " /><path fill="rgb(40,98,117)" stroke="rgb(40,98,117)" stroke-width="1" opacity="0.25098039215686274" d="M 597.5 109 L 599 114.5 L 598 114.5 L 597.5 109 Z " /><path fill="rgb(40,98,117)" stroke="rgb(40,98,117)" stroke-width="1" opacity="0.25098039215686274" d="M 665.5 109 L 672 109.5 L 665.5 110 L 665.5 109 Z " /><path fill="rgb(40,98,117)" stroke="rgb(40,98,117)" stroke-width="1" opacity="0.25098039215686274" d="M 693.5 109 L 694 113.5 L 693 113.5 L 693.5 109 Z " /><path fill="rgb(40,98,117)" stroke="rgb(40,98,117)" stroke-width="1" opacity="0.25098039215686274" d="M 246.5 110 L 248 110.5 L 242.5 115 L 246.5 110 Z " /><path fill="rgb(40,98,117)" stroke="rgb(40,98,117)" stroke-width="1" opacity="0.25098039215686274" d="M 289.5 110 L 291 110.5 L 286 114.5 L 284.5 118 L 284 116.5 L 289.5 110 Z " /><path fill="rgb(40,98,117)" stroke="rgb(40,98,117)" stroke-width="1" opacity="0.25098039215686274" d="M 342.5 110 L 346 114.5 L 345 114.5 L 342.5 110 Z " /><path fill="rgb(40,98,117)" stroke="rgb(40,98,117)" stroke-width="1" opacity="0.25098039215686274" d="M 419.5 110 L 424 113.5 L 423.5 115 L 420.5 111 L 419.5 110 Z " /><path fill="rgb(40,98,117)" stroke="rgb(40,98,117)" stroke-width="1" opacity="0.25098039215686274" d="M 475.5 110 L 478 111.5 L 476.5 111 L 475.5 110 Z " /><path fill="rgb(40,98,117)" stroke="rgb(40,98,117)" stroke-width="1" opacity="0.25098039215686274" d="M 580.5 110 L 586 114.5 Q 589.4 119.6 588 129.5 L 587 129.5 Q 589 115.5 581.5 111 L 580.5 110 Z " /><path fill="rgb(40,98,117)" stroke="rgb(40,98,117)" stroke-width="1" opacity="0.25098039215686274" d="M 663.5 110 L 662.5 112 L 660 113.5 L 657.5 118 L 657 116.5 L 661.5 111 L 663.5 110 Z " /><path fill="rgb(40,98,117)" stroke="rgb(40,98,117)" stroke-width="1" opacity="0.25098039215686274" d="M 673.5 110 L 679 114.5 L 680 118.5 L 679 118.5 Q 678.6 113 674.5 111 L 673.5 110 Z " /><path fill="rgb(40,98,117)" stroke="rgb(40,98,117)" stroke-width="1" opacity="0.25098039215686274" d="M 706.5 110 L 710 110.5 Q 703.5 111 701 115.5 L 699.5 120 L 699 117.5 L 702.5 112 L 706.5 110 Z " /><path fill="rgb(40,98,117)" stroke="rgb(40,98,117)" stroke-width="1" opacity="0.25098039215686274" d="M 551.5 111 L 552 112.5 L 547.5 118 L 540.5 121 L 535.5 121 L 535.5 120 Q 545.7 120.2 550 114.5 L 551.5 111 Z " /><path fill="rgb(40,98,117)" stroke="rgb(40,98,117)" stroke-width="1" opacity="0.25098039215686274" d="M 626.5 112 L 627 114.5 L 626 114.5 L 626.5 112 Z " /><path fill="rgb(40,98,117)" stroke="rgb(40,98,117)" stroke-width="1" opacity="0.25098039215686274" d="M 225.5 113 L 226 145 L 221 144.5 L 225 144 L 225.5 113 Z " /><path fill="rgb(40,98,117)" stroke="rgb(40,98,117)" stroke-width="1" opacity="0.25098039215686274" d="M 621.5 113 L 623 116.5 L 621 116.5 L 620.5 119 L 620 116.5 L 621.5 113 Z " /><path fill="rgb(40,98,117)" stroke="rgb(40,98,117)" stroke-width="1" opacity="0.25098039215686274" d="M 616.5 114 L 617 116.5 L 616 116.5 L 616.5 114 Z " /><path fill="rgb(40,98,117)" stroke="rgb(40,98,117)" stroke-width="1" opacity="0.25098039215686274" d="M 262.5 115 L 264 117.5 L 263 117.5 L 262.5 115 Z " /><path fill="rgb(40,98,117)" stroke="rgb(40,98,117)" stroke-width="1" opacity="0.25098039215686274" d="M 351.5 115 L 352 143.5 Q 351.3 145.8 347.5 145 L 346 143.5 L 346 116.5 L 347 116.5 L 347 143.5 L 351 144 L 351.5 115 Z " /><path fill="rgb(40,98,117)" stroke="rgb(40,98,117)" stroke-width="1" opacity="0.25098039215686274" d="M 479.5 115 L 480 117.5 L 479 117.5 L 479.5 115 Z " /><path fill="rgb(40,98,117)" stroke="rgb(40,98,117)" stroke-width="1" opacity="0.25098039215686274" d="M 484.5 115 L 485 140 Q 490.6 137.8 489 143.5 Q 487.5 146.5 481.5 145 L 478.5 141 Q 475.7 144.7 469.5 145 L 469.5 144 Q 476.6 143.6 479.5 139 L 482.5 144 Q 489.8 146.2 488 141 L 484 139.5 L 484.5 115 Z " /><path fill="rgb(40,98,117)" stroke="rgb(40,98,117)" stroke-width="1" opacity="0.25098039215686274" d="M 538.5 115 L 541 115.5 L 538.5 116 L 538.5 115 Z " /><path fill="rgb(40,98,117)" stroke="rgb(40,98,117)" stroke-width="1" opacity="0.25098039215686274" d="M 693.5 115 L 694 132.5 L 693 132.5 L 693.5 115 Z " /><path fill="rgb(40,98,117)" stroke="rgb(40,98,117)" stroke-width="1" opacity="0.25098039215686274" d="M 424.5 116 L 428.5 117 L 430 116.5 Q 428.6 119.3 424 118 L 424.5 116 Z " /><path fill="rgb(40,98,117)" stroke="rgb(40,98,117)" stroke-width="1" opacity="0.25098039215686274" d="M 558.5 116 L 559 118.5 L 558 118.5 L 558.5 116 Z " /><path fill="rgb(40,98,117)" stroke="rgb(40,98,117)" stroke-width="1" opacity="0.25098039215686274" d="M 627.5 116 L 628 118.5 L 627 118.5 L 627.5 116 Z " /><path fill="rgb(40,98,117)" stroke="rgb(40,98,117)" stroke-width="1" opacity="0.25098039215686274" d="M 652.5 116 L 653 117.5 L 651.5 123 L 651 118.5 L 652.5 116 Z " /><path fill="rgb(40,98,117)" stroke="rgb(40,98,117)" stroke-width="1" opacity="0.25098039215686274" d="M 684.5 116 Q 687.2 120 686 127 L 657.5 127 L 657 130.5 L 656 130.5 Q 655.5 126 656.5 126 L 685 126 L 685 119.5 L 684.5 116 Z " /><path fill="rgb(40,98,117)" stroke="rgb(40,98,117)" stroke-width="1" opacity="0.25098039215686274" d="M 200.5 117 L 201 120.5 L 200 120.5 L 200.5 117 Z " /><path fill="rgb(40,98,117)" stroke="rgb(40,98,117)" stroke-width="1" opacity="0.25098039215686274" d="M 312.5 117 L 313 119.5 L 312 119.5 L 312.5 117 Z " /><path fill="rgb(40,98,117)" stroke="rgb(40,98,117)" stroke-width="1" opacity="0.25098039215686274" d="M 240.5 118 L 241 120.5 L 240 120.5 L 240.5 118 Z " /><path fill="rgb(40,98,117)" stroke="rgb(40,98,117)" stroke-width="1" opacity="0.25098039215686274" d="M 278.5 118 L 279 120.5 L 278 120.5 L 278.5 118 Z " /><path fill="rgb(40,98,117)" stroke="rgb(40,98,117)" stroke-width="1" opacity="0.25098039215686274" d="M 307.5 118 L 308 120.5 L 307 120.5 L 307.5 118 Z " /><path fill="rgb(40,98,117)" stroke="rgb(40,98,117)" stroke-width="1" opacity="0.25098039215686274" d="M 388.5 118 L 389 121.5 L 388 121.5 L 388.5 118 Z " /><path fill="rgb(40,98,117)" stroke="rgb(40,98,117)" stroke-width="1" opacity="0.25098039215686274" d="M 393.5 118 L 394 123.5 L 393 123.5 L 393.5 118 Z " /><path fill="rgb(40,98,117)" stroke="rgb(40,98,117)" stroke-width="1" opacity="0.25098039215686274" d="M 401.5 118 L 405.5 124 L 414 126.5 L 410.5 127 Q 404 125.5 401 120.5 L 401.5 118 Z " /><path fill="rgb(40,98,117)" stroke="rgb(40,98,117)" stroke-width="1" opacity="0.25098039215686274" d="M 592.5 118 L 593 123.5 L 592 123.5 L 592.5 118 Z " /><path fill="rgb(40,98,117)" stroke="rgb(40,98,117)" stroke-width="1" opacity="0.25098039215686274" d="M 615.5 118 L 616 120.5 L 615 120.5 L 615.5 118 Z " /><path fill="rgb(40,98,117)" stroke="rgb(40,98,117)" stroke-width="1" opacity="0.25098039215686274" d="M 623.5 118 L 625 124.5 L 624 124.5 L 623.5 118 Z " /><path fill="rgb(40,98,117)" stroke="rgb(40,98,117)" stroke-width="1" opacity="0.25098039215686274" d="M 264.5 119 L 265 123.5 L 264 123.5 L 264.5 119 Z " /><path fill="rgb(40,98,117)" stroke="rgb(40,98,117)" stroke-width="1" opacity="0.25098039215686274" d="M 283.5 119 L 284 122.5 L 283 122.5 L 283.5 119 Z " /><path fill="rgb(40,98,117)" stroke="rgb(40,98,117)" stroke-width="1" opacity="0.25098039215686274" d="M 478.5 119 L 477.5 121 L 476 120.5 L 478.5 119 Z " /><path fill="rgb(40,98,117)" stroke="rgb(40,98,117)" stroke-width="1" opacity="0.25098039215686274" d="M 600.5 119 L 603 127.5 L 602 127.5 L 600.5 119 Z " /><path fill="rgb(40,98,117)" stroke="rgb(40,98,117)" stroke-width="1" opacity="0.25098039215686274" d="M 605.5 119 L 607 124.5 L 606 124.5 L 605.5 119 Z " /><path fill="rgb(40,98,117)" stroke="rgb(40,98,117)" stroke-width="1" opacity="0.25098039215686274" d="M 656.5 119 L 657 121.5 L 656 121.5 L 656.5 119 Z " /><path fill="rgb(40,98,117)" stroke="rgb(40,98,117)" stroke-width="1" opacity="0.25098039215686274" d="M 359.5 120 L 360 130.5 L 359 130.5 L 359.5 120 Z " /><path fill="rgb(40,98,117)" stroke="rgb(40,98,117)" stroke-width="1" opacity="0.25098039215686274" d="M 557.5 120 L 558 129.5 L 557 129.5 L 557.5 120 Z " /><path fill="rgb(40,98,117)" stroke="rgb(40,98,117)" stroke-width="1" opacity="0.25098039215686274" d="M 619.5 120 L 620 122.5 L 619 122.5 L 619.5 120 Z " /><path fill="rgb(40,98,117)" stroke="rgb(40,98,117)" stroke-width="1" opacity="0.25098039215686274" d="M 628.5 120 L 631 129.5 L 630 129.5 L 628.5 120 Z " /><path fill="rgb(40,98,117)" stroke="rgb(40,98,117)" stroke-width="1" opacity="0.25098039215686274" d="M 637.5 120 L 638 122.5 L 634.5 132 L 634 129.5 L 637.5 120 Z " /><path fill="rgb(40,98,117)" stroke="rgb(40,98,117)" stroke-width="1" opacity="0.25098039215686274" d="M 234.5 121 L 235 129.5 L 234 129.5 L 234.5 121 Z " /><path fill="rgb(40,98,117)" stroke="rgb(40,98,117)" stroke-width="1" opacity="0.25098039215686274" d="M 471.5 121 L 475 121.5 L 471.5 122 L 471.5 121 Z " /><path fill="rgb(40,98,117)" stroke="rgb(40,98,117)" stroke-width="1" opacity="0.25098039215686274" d="M 562.5 121 L 563 128.5 L 562 128.5 L 562.5 121 Z " /><path fill="rgb(40,98,117)" stroke="rgb(40,98,117)" stroke-width="1" opacity="0.25098039215686274" d="M 313.5 122 L 314 127.5 L 313 127.5 L 313.5 122 Z " /><path fill="rgb(40,98,117)" stroke="rgb(40,98,117)" stroke-width="1" opacity="0.25098039215686274" d="M 415.5 122 Q 424.7 122.3 429 127.5 Q 431.7 129.8 431 135.5 L 430 135.5 Q 430.1 127.4 424.5 125 L 415.5 123 L 415.5 122 Z " /><path fill="rgb(40,98,117)" stroke="rgb(40,98,117)" stroke-width="1" opacity="0.25098039215686274" d="M 463.5 122 L 468 122.5 L 463.5 123 L 463.5 122 Z " /><path fill="rgb(40,98,117)" stroke="rgb(40,98,117)" stroke-width="1" opacity="0.25098039215686274" d="M 698.5 122 L 699 145 L 694 144.5 L 698 144 L 698.5 122 Z " /><path fill="rgb(40,98,117)" stroke="rgb(40,98,117)" stroke-width="1" opacity="0.25098039215686274" d="M 239.5 123 L 240 127.5 L 239 127.5 L 239.5 123 Z " /><path fill="rgb(40,98,117)" stroke="rgb(40,98,117)" stroke-width="1" opacity="0.25098039215686274" d="M 308.5 123 L 309 125.5 L 308 125.5 L 308.5 123 Z " /><path fill="rgb(40,98,117)" stroke="rgb(40,98,117)" stroke-width="1" opacity="0.25098039215686274" d="M 458.5 124 L 457.5 126 L 454.5 128 L 456.5 125 L 458.5 124 Z " /><path fill="rgb(40,98,117)" stroke="rgb(40,98,117)" stroke-width="1" opacity="0.25098039215686274" d="M 478.5 124 L 480 124.5 L 480 131.5 L 479 131.5 Q 479.5 125.5 478.5 124 Z " /><path fill="rgb(40,98,117)" stroke="rgb(40,98,117)" stroke-width="1" opacity="0.25098039215686274" d="M 618.5 124 L 619 126.5 L 617.5 130 L 617 127.5 L 618.5 124 Z " /><path fill="rgb(40,98,117)" stroke="rgb(40,98,117)" stroke-width="1" opacity="0.25098039215686274" d="M 264.5 125 L 265 130.5 L 264 130.5 L 264.5 125 Z " /><path fill="rgb(40,98,117)" stroke="rgb(40,98,117)" stroke-width="1" opacity="0.25098039215686274" d="M 393.5 125 L 394 127 L 365.5 127 L 365 128.5 L 364 128.5 L 364.5 126 L 392.5 126 L 393.5 125 Z " /><path fill="rgb(40,98,117)" stroke="rgb(40,98,117)" stroke-width="1" opacity="0.25098039215686274" d="M 474.5 125 L 477 125.5 L 474.5 126 L 474.5 125 Z " /><path fill="rgb(40,98,117)" stroke="rgb(40,98,117)" stroke-width="1" opacity="0.25098039215686274" d="M 465.5 126 L 472 126.5 L 465.5 127 L 465.5 126 Z " /><path fill="rgb(40,98,117)" stroke="rgb(40,98,117)" stroke-width="1" opacity="0.25098039215686274" d="M 592.5 126 L 593 130.5 L 592 130.5 L 592.5 126 Z " /><path fill="rgb(40,98,117)" stroke="rgb(40,98,117)" stroke-width="1" opacity="0.25098039215686274" d="M 625.5 126 L 626 128.5 L 625 128.5 L 625.5 126 Z " /><path fill="rgb(40,98,117)" stroke="rgb(40,98,117)" stroke-width="1" opacity="0.25098039215686274" d="M 283.5 127 L 284 130.5 L 283 130.5 L 283.5 127 Z " /><path fill="rgb(40,98,117)" stroke="rgb(40,98,117)" stroke-width="1" opacity="0.25098039215686274" d="M 415.5 127 L 421 128.5 L 419.5 129 L 415.5 128 L 415.5 127 Z " /><path fill="rgb(40,98,117)" stroke="rgb(40,98,117)" stroke-width="1" opacity="0.25098039215686274" d="M 462.5 127 L 464 127.5 L 459 130.5 L 458.5 132 L 458 130.5 L 462.5 127 Z " /><path fill="rgb(40,98,117)" stroke="rgb(40,98,117)" stroke-width="1" opacity="0.25098039215686274" d="M 651.5 127 L 652 131.5 L 651 131.5 L 651.5 127 Z " /><path fill="rgb(40,98,117)" stroke="rgb(40,98,117)" stroke-width="1" opacity="0.25098039215686274" d="M 278.5 129 L 280 134.5 L 279 134.5 L 278.5 129 Z " /><path fill="rgb(40,98,117)" stroke="rgb(40,98,117)" stroke-width="1" opacity="0.25098039215686274" d="M 307.5 129 L 308 131.5 L 301.5 140 L 292.5 141 L 292.5 140 Q 302.6 141.6 305 135.5 L 307.5 129 Z " /><path fill="rgb(40,98,117)" stroke="rgb(40,98,117)" stroke-width="1" opacity="0.25098039215686274" d="M 422.5 129 L 425 132.5 L 424 132.5 L 422.5 129 Z " /><path fill="rgb(40,98,117)" stroke="rgb(40,98,117)" stroke-width="1" opacity="0.25098039215686274" d="M 608.5 129 L 610 134.5 L 609 134.5 L 608.5 129 Z " /><path fill="rgb(40,98,117)" stroke="rgb(40,98,117)" stroke-width="1" opacity="0.25098039215686274" d="M 612.5 129 L 613 131.5 L 612 131.5 L 612.5 129 Z " /><path fill="rgb(40,98,117)" stroke="rgb(40,98,117)" stroke-width="1" opacity="0.25098039215686274" d="M 240.5 130 Q 241.6 136.4 246.5 139 L 248 139.5 L 246.5 140 Q 240 137.1 240.5 130 Z " /><path fill="rgb(40,98,117)" stroke="rgb(40,98,117)" stroke-width="1" opacity="0.25098039215686274" d="M 312.5 130 L 313 132.5 L 312 132.5 L 312.5 130 Z " /><path fill="rgb(40,98,117)" stroke="rgb(40,98,117)" stroke-width="1" opacity="0.25098039215686274" d="M 365.5 130 L 369.5 138 Q 372.8 141.2 380.5 140 L 386 136.5 L 388.5 132 L 388 133.5 L 384.5 139 Q 381.2 142.2 373.5 141 L 367 136.5 Q 364 134 365.5 130 Z " /><path fill="rgb(40,98,117)" stroke="rgb(40,98,117)" stroke-width="1" opacity="0.25098039215686274" d="M 563.5 130 L 567 138 Q 570.3 141 578.5 140 L 584 136.5 L 586.5 131 L 587 132.5 L 582.5 139 Q 579.2 142.2 571.5 141 L 565 136.5 Q 562 134 563.5 130 Z " /><path fill="rgb(40,98,117)" stroke="rgb(40,98,117)" stroke-width="1" opacity="0.25098039215686274" d="M 626.5 130 L 627 132.5 L 626 132.5 L 626.5 130 Z " /><path fill="rgb(40,98,117)" stroke="rgb(40,98,117)" stroke-width="1" opacity="0.25098039215686274" d="M 235.5 131 L 236 133.5 L 235 133.5 L 235.5 131 Z " /><path fill="rgb(40,98,117)" stroke="rgb(40,98,117)" stroke-width="1" opacity="0.25098039215686274" d="M 400 131 Q 404.6 129.8 406 132.5 Q 406.3 137.3 409.5 139 L 411 139.5 L 409.5 140 Q 405.1 137.6 405 132 Q 399 129.8 401 136.5 L 406.5 143 L 411 144.5 L 408.5 145 L 401 138.5 L 400 131 Z " /><path fill="rgb(40,98,117)" stroke="rgb(40,98,117)" stroke-width="1" opacity="0.25098039215686274" d="M 616.5 131 L 617 133.5 L 616 133.5 L 616.5 131 Z " /><path fill="rgb(40,98,117)" stroke="rgb(40,98,117)" stroke-width="1" opacity="0.25098039215686274" d="M 263.5 132 L 264 133.5 L 259.5 139 L 257.5 140 L 258.5 138 L 262 135.5 L 263.5 132 Z " /><path fill="rgb(40,98,117)" stroke="rgb(40,98,117)" stroke-width="1" opacity="0.25098039215686274" d="M 284.5 132 L 289.5 139 L 291 139.5 L 289.5 140 Q 284.2 137.4 284.5 132 Z " /><path fill="rgb(40,98,117)" stroke="rgb(40,98,117)" stroke-width="1" opacity="0.25098039215686274" d="M 360.5 132 Q 361.7 138.8 366.5 142 L 374 144.5 L 370.5 145 L 362 138.5 Q 359 136 360.5 132 Z " /><path fill="rgb(40,98,117)" stroke="rgb(40,98,117)" stroke-width="1" opacity="0.25098039215686274" d="M 393.5 132 L 394 133.5 L 392.5 136 L 392 134.5 L 393.5 132 Z " /><path fill="rgb(40,98,117)" stroke="rgb(40,98,117)" stroke-width="1" opacity="0.25098039215686274" d="M 452.5 132 L 453 135.5 L 452 135.5 L 452.5 132 Z " /><path fill="rgb(40,98,117)" stroke="rgb(40,98,117)" stroke-width="1" opacity="0.25098039215686274" d="M 591.5 132 L 592 134.5 L 585.5 143 L 578.5 145 L 578.5 144 L 581.5 144 L 588 139.5 L 591.5 132 Z " /><path fill="rgb(40,98,117)" stroke="rgb(40,98,117)" stroke-width="1" opacity="0.25098039215686274" d="M 604.5 132 L 606 137.5 L 605 137.5 L 604.5 132 Z " /><path fill="rgb(40,98,117)" stroke="rgb(40,98,117)" stroke-width="1" opacity="0.25098039215686274" d="M 638.5 132 L 639 134.5 L 637.5 137 L 637 135.5 L 638.5 132 Z " /><path fill="rgb(40,98,117)" stroke="rgb(40,98,117)" stroke-width="1" opacity="0.25098039215686274" d="M 657.5 132 L 662.5 139 L 664 139.5 L 662.5 140 Q 657.2 137.4 657.5 132 Z " /><path fill="rgb(40,98,117)" stroke="rgb(40,98,117)" stroke-width="1" opacity="0.25098039215686274" d="M 684 132 L 686 132.5 Q 683.9 140.4 677.5 144 L 676 143.5 L 683 137.5 L 684 132 Z " /><path fill="rgb(40,98,117)" stroke="rgb(40,98,117)" stroke-width="1" opacity="0.25098039215686274" d="M 478.5 133 L 479 134.5 L 471.5 140 L 471.5 139 L 478 134.5 L 478.5 133 Z " /><path fill="rgb(40,98,117)" stroke="rgb(40,98,117)" stroke-width="1" opacity="0.25098039215686274" d="M 611.5 133 L 612 135.5 L 610.5 138 L 610 136.5 L 611.5 133 Z " /><path fill="rgb(40,98,117)" stroke="rgb(40,98,117)" stroke-width="1" opacity="0.25098039215686274" d="M 633.5 133 L 634 134.5 L 632.5 137 L 632 135.5 L 633.5 133 Z " /><path fill="rgb(40,98,117)" stroke="rgb(40,98,117)" stroke-width="1" opacity="0.25098039215686274" d="M 311.5 134 L 312 135.5 L 305.5 143 L 299.5 145 L 299.5 144 Q 306.9 142.9 310 137.5 L 311.5 134 Z " /><path fill="rgb(40,98,117)" stroke="rgb(40,98,117)" stroke-width="1" opacity="0.25098039215686274" d="M 627.5 134 L 628 136.5 L 627 136.5 L 627.5 134 Z " /><path fill="rgb(40,98,117)" stroke="rgb(40,98,117)" stroke-width="1" opacity="0.25098039215686274" d="M 693.5 134 L 694 137.5 L 693 137.5 L 693.5 134 Z " /><path fill="rgb(40,98,117)" stroke="rgb(40,98,117)" stroke-width="1" opacity="0.25098039215686274" d="M 236.5 135 L 241.5 142 L 248 144.5 L 245.5 145 L 238 139.5 L 236.5 135 Z " /><path fill="rgb(40,98,117)" stroke="rgb(40,98,117)" stroke-width="1" opacity="0.25098039215686274" d="M 424.5 135 L 425 136.5 Q 422.6 142.6 412.5 141 L 412.5 140 Q 421.5 141.5 424 136.5 L 424.5 135 Z " /><path fill="rgb(40,98,117)" stroke="rgb(40,98,117)" stroke-width="1" opacity="0.25098039215686274" d="M 615.5 135 L 616 137.5 L 615 137.5 L 615.5 135 Z " /><path fill="rgb(40,98,117)" stroke="rgb(40,98,117)" stroke-width="1" opacity="0.25098039215686274" d="M 678.5 135 L 674.5 140 L 665.5 141 L 665.5 140 Q 676.1 141.6 678.5 135 Z " /><path fill="rgb(40,98,117)" stroke="rgb(40,98,117)" stroke-width="1" opacity="0.25098039215686274" d="M 280.5 136 L 285.5 142 L 293 144.5 L 289.5 145 L 281 138.5 L 280.5 136 Z " /><path fill="rgb(40,98,117)" stroke="rgb(40,98,117)" stroke-width="1" opacity="0.25098039215686274" d="M 458.5 136 L 460.5 139 L 470 140.5 L 462.5 141 L 458 137.5 L 458.5 136 Z " /><path fill="rgb(40,98,117)" stroke="rgb(40,98,117)" stroke-width="1" opacity="0.25098039215686274" d="M 391.5 137 L 391 138.5 L 387.5 143 L 380.5 145 L 380.5 144 L 383.5 144 L 390 139.5 L 391.5 137 Z " /><path fill="rgb(40,98,117)" stroke="rgb(40,98,117)" stroke-width="1" opacity="0.25098039215686274" d="M 429.5 137 L 430 138.5 L 428 142 L 423.5 144 L 423.5 143 L 429 138.5 L 429.5 137 Z " /><path fill="rgb(40,98,117)" stroke="rgb(40,98,117)" stroke-width="1" opacity="0.25098039215686274" d="M 560.5 137 L 568 143.5 L 566.5 144 L 561 139.5 L 560.5 137 Z " /><path fill="rgb(40,98,117)" stroke="rgb(40,98,117)" stroke-width="1" opacity="0.25098039215686274" d="M 264.5 138 L 265 141 L 255.5 145 L 255.5 144 L 263 141 L 264.5 138 Z " /><path fill="rgb(40,98,117)" stroke="rgb(40,98,117)" stroke-width="1" opacity="0.25098039215686274" d="M 628.5 138 L 630 144 L 635 144 L 635 141.5 L 636.5 138 L 637 140.5 L 634.5 145 Q 630 146 629 143.5 L 628.5 138 Z " /><path fill="rgb(40,98,117)" stroke="rgb(40,98,117)" stroke-width="1" opacity="0.25098039215686274" d="M 654.5 138 L 658.5 143 L 654.5 138 Z " /><path fill="rgb(40,98,117)" stroke="rgb(40,98,117)" stroke-width="1" opacity="0.25098039215686274" d="M 614.5 139 L 615 141.5 L 614 141.5 L 614.5 139 Z " /><path fill="rgb(40,98,117)" stroke="rgb(40,98,117)" stroke-width="1" opacity="0.25098039215686274" d="M 249.5 140 L 256 140.5 L 249.5 141 L 249.5 140 Z " /><path fill="rgb(40,98,117)" stroke="rgb(40,98,117)" stroke-width="1" opacity="0.25098039215686274" d="M 454.5 140 Q 456.8 143.8 462 144.5 L 459.5 145 L 454.5 140 Z " /><path fill="rgb(40,98,117)" stroke="rgb(40,98,117)" stroke-width="1" opacity="0.25098039215686274" d="M 607.5 142 L 608 144 L 613.5 143 L 612.5 145 Q 608 146 607 143.5 L 607.5 142 Z " /><path fill="rgb(40,98,117)" stroke="rgb(40,98,117)" stroke-width="1" opacity="0.25098039215686274" d="M 439.5 143 L 442.5 144 L 444 143.5 L 444 145 L 439 145 L 439.5 143 Z " /><path fill="rgb(40,98,117)" stroke="rgb(40,98,117)" stroke-width="1" opacity="0.25098039215686274" d="M 660.5 143 L 665 144.5 L 662.5 145 L 660.5 143 Z " /><path fill="rgb(40,98,117)" stroke="rgb(40,98,117)" stroke-width="1" opacity="0.25098039215686274" d="M 418.5 144 L 422 144.5 L 418.5 145 L 418.5 144 Z " /><path fill="rgb(40,98,117)" stroke="rgb(40,98,117)" stroke-width="1" opacity="0.25098039215686274" d="M 569.5 144 L 572 144.5 L 569.5 145 L 569.5 144 Z " /><path fill="rgb(40,98,117)" stroke="rgb(40,98,117)" stroke-width="1" opacity="0.25098039215686274" d="M 672.5 144 L 675 144.5 L 672.5 145 L 672.5 144 Z " /><path fill="rgb(43,99,118)" stroke="rgb(43,99,118)" stroke-width="1" opacity="0.9529411764705882" d="M 41.5 48 L 45 48.5 L 41.5 49 L 41.5 48 Z " /><path fill="rgb(43,99,118)" stroke="rgb(43,99,118)" stroke-width="1" opacity="0.9529411764705882" d="M 71.5 48 L 74 48.5 L 71.5 49 L 71.5 48 Z " /><path fill="rgb(43,99,118)" stroke="rgb(43,99,118)" stroke-width="1" opacity="0.9529411764705882" d="M 101.5 48 L 105 48.5 L 101.5 49 L 101.5 48 Z " /><path fill="rgb(43,99,118)" stroke="rgb(43,99,118)" stroke-width="1" opacity="0.9529411764705882" d="M 51.5 50 L 53 52.5 L 52 52.5 L 51.5 50 Z " /><path fill="rgb(43,99,118)" stroke="rgb(43,99,118)" stroke-width="1" opacity="0.9529411764705882" d="M 95.5 54 Q 98.8 52.9 98 55.5 L 96.5 55 L 95.5 54 Z " /><path fill="rgb(43,99,118)" stroke="rgb(43,99,118)" stroke-width="1" opacity="0.9529411764705882" d="M 78.5 74 L 79 76.5 L 78 76.5 L 78.5 74 Z " /><path fill="rgb(43,99,118)" stroke="rgb(43,99,118)" stroke-width="1" opacity="0.9529411764705882" d="M 70.5 80 L 73 80.5 L 70.5 81 L 70.5 80 Z " /><path fill="rgb(43,99,118)" stroke="rgb(43,99,118)" stroke-width="1" opacity="0.9529411764705882" d="M 57.5 83 L 58.5 85 L 56 84.5 L 57.5 83 Z " /><path fill="rgb(43,99,118)" stroke="rgb(43,99,118)" stroke-width="1" opacity="0.9529411764705882" d="M 87.5 84 L 91 84.5 L 87.5 85 L 87.5 84 Z " /><path fill="rgb(43,99,118)" stroke="rgb(43,99,118)" stroke-width="1" opacity="0.9529411764705882" d="M 178 92 L 183 92.5 L 183 142.5 Q 181.8 145 178 144 L 178 92 Z " /><path fill="rgb(43,99,118)" stroke="rgb(43,99,118)" stroke-width="1" opacity="0.9529411764705882" d="M 265 92 L 269 92.5 L 269 144 Q 262.6 146.3 265 138.5 L 263 139.5 Q 263.8 141.8 261.5 141 Q 258.1 146.1 248.5 145 L 239 139.5 Q 233.5 133.5 235 120.5 Q 236.8 111.3 243.5 107 L 249.5 105 L 254.5 105 Q 261.1 106.4 264.5 111 L 265 92 Z M 250 109 L 247 110 L 242 115 L 239 124 L 241 135 Q 243 140 250 141 Q 257 142 260 139 Q 264 136 265 131 Q 267 119 262 114 Q 259 108 250 109 Z " /><path fill="rgb(43,99,118)" stroke="rgb(43,99,118)" stroke-width="1" opacity="0.9529411764705882" d="M 439 92 L 444 92 L 444 98 L 439 98 L 439 92 Z " /><path fill="rgb(43,99,118)" stroke="rgb(43,99,118)" stroke-width="1" opacity="0.9529411764705882" d="M 516 92 L 542.5 92 L 551 98.5 L 552 110.5 L 547.5 117 L 534.5 121 L 521 121 L 521 143.5 L 516 144 L 516 92 Z M 521 96 L 521 117 L 535 117 L 545 114 L 547 111 Q 549 103 546 100 L 541 96 L 521 96 Z " /><path fill="rgb(43,99,118)" stroke="rgb(43,99,118)" stroke-width="1" opacity="0.9529411764705882" d="M 87.5 97 L 91 97.5 L 87.5 98 L 87.5 97 Z " /><path fill="rgb(43,99,118)" stroke="rgb(43,99,118)" stroke-width="1" opacity="0.9529411764705882" d="M 209.5 105 Q 219.3 104.2 223 109.5 L 225 112.5 L 225 144 L 221 143.5 L 221 114.5 L 217.5 110 L 208.5 109 L 202 113.5 L 200 117.5 L 200 144 L 196 143.5 L 196 106 Q 202 103.8 200 110.5 L 203.5 108 L 209.5 105 Z " /><path fill="rgb(43,99,118)" stroke="rgb(43,99,118)" stroke-width="1" opacity="0.9529411764705882" d="M 292.5 105 Q 305.9 104.1 310 112.5 Q 314.2 118.3 313 129.5 Q 311.5 138 305.5 142 L 298.5 145 L 293.5 145 Q 285.7 143.8 282 138.5 L 278 128.5 L 278 121.5 L 280 114.5 L 285.5 108 L 292.5 105 Z M 293 109 L 290 110 Q 285 113 283 120 Q 281 130 285 136 L 293 141 L 302 140 L 306 136 L 309 126 Q 309 117 305 113 Q 302 108 293 109 Z " /><path fill="rgb(43,99,118)" stroke="rgb(43,99,118)" stroke-width="1" opacity="0.9529411764705882" d="M 335.5 105 Q 346.4 104.6 350 111.5 L 351 114.5 L 351 144 L 347 143.5 L 347 116.5 L 342.5 110 L 333.5 109 L 327 114.5 L 325 120.5 L 325 144 L 321 143.5 L 321 106 L 325 106 L 325 111 L 326.5 111 Q 329.4 106.4 335.5 105 Z " /><path fill="rgb(43,99,118)" stroke="rgb(43,99,118)" stroke-width="1" opacity="0.9529411764705882" d="M 374.5 105 Q 387.1 104.4 391 112.5 L 394 124.5 L 392.5 126 L 364 126 Q 364.1 134.6 369.5 139 Q 372.8 142.2 380.5 141 L 387 136.5 L 389.5 132 Q 393.9 130.5 393 133.5 L 387.5 142 L 379.5 145 L 374.5 145 Q 366.7 143.8 363 138.5 Q 358.2 132.3 360 119.5 Q 362.1 111.2 368.5 107 L 374.5 105 Z M 374 109 L 372 110 Q 365 113 364 122 L 389 122 Q 390 116 386 113 Q 383 108 374 109 Z " /><path fill="rgb(43,99,118)" stroke="rgb(43,99,118)" stroke-width="1" opacity="0.9529411764705882" d="M 411.5 105 Q 423 104 427 110.5 L 429 117 Q 425.2 118 424 115.5 Q 424.5 110.5 420.5 110 L 410.5 109 L 406 112.5 Q 404.8 119.8 409.5 121 L 424.5 125 L 429 129.5 L 430 136.5 L 424.5 143 L 417.5 145 L 411.5 145 Q 405 143.5 402 138.5 L 401 132 Q 406.2 129.9 405 134.5 L 409.5 140 L 419.5 141 L 425 136.5 Q 426.3 130.3 422.5 129 L 418.5 127 L 407.5 125 L 402 120.5 L 401 114.5 L 404.5 108 L 411.5 105 Z " /><path fill="rgb(43,99,118)" stroke="rgb(43,99,118)" stroke-width="1" opacity="0.9529411764705882" d="M 467.5 105 L 473.5 105 L 482 109.5 L 484 114.5 L 484 139.5 L 485.5 141 Q 489.7 139.9 488 144 Q 481.7 145.5 480 141.5 L 479.5 139 Q 474.5 145.5 462.5 145 Q 456.8 143.8 454 139.5 L 453 131.5 L 456.5 126 L 462.5 123 L 474.5 122 L 479 119.5 L 480 115.5 L 476.5 110 L 465.5 109 L 460 113.5 L 459 117 Q 453.8 119.1 455 114.5 L 459.5 108 L 467.5 105 Z M 479 124 Q 474 127 466 126 L 461 128 L 457 134 L 458 138 L 463 141 Q 471 142 475 139 L 480 132 L 480 125 L 479 124 Z " /><path fill="rgb(43,99,118)" stroke="rgb(43,99,118)" stroke-width="1" opacity="0.9529411764705882" d="M 572.5 105 Q 584.5 104.5 589 111.5 L 592 117.5 L 593 125.5 L 591 134.5 L 586.5 141 Q 582 145.5 572.5 145 Q 563.6 143.4 560 136.5 Q 556.3 130.7 558 119.5 Q 559.6 110.6 566.5 107 L 572.5 105 Z M 572 109 L 568 111 Q 563 115 562 122 L 562 129 L 565 137 L 572 141 Q 579 142 583 139 L 588 130 Q 589 120 586 115 Q 583 108 572 109 Z " /><path fill="rgb(43,99,118)" stroke="rgb(43,99,118)" stroke-width="1" opacity="0.9529411764705882" d="M 666.5 105 Q 677.7 104.8 682 111.5 Q 686 116.9 685 126 L 656.5 126 Q 655.5 126 656 130.5 Q 657.5 137 662.5 140 L 672.5 141 L 679 135.5 L 680 132 Q 685.6 129.8 684 135.5 L 677.5 143 L 671.5 145 L 665.5 145 Q 657.4 143.6 654 137.5 L 652 132.5 L 651 123.5 L 653 115.5 L 657.5 109 L 666.5 105 Z M 666 109 L 662 111 L 656 120 L 657 122 L 681 122 L 679 115 Q 676 108 666 109 Z " /><path fill="rgb(43,99,118)" stroke="rgb(43,99,118)" stroke-width="1" opacity="0.9529411764705882" d="M 708.5 105 L 711 105 L 711 110 Q 704 109 701 113.5 L 698 122.5 L 698 144 L 694 143.5 L 694 106 L 698 106 L 698 112.5 L 699 112.5 L 701 108 L 708.5 105 Z " /><path fill="rgb(43,99,118)" stroke="rgb(43,99,118)" stroke-width="1" opacity="0.9529411764705882" d="M 439 106 Q 442.8 105 444 107.5 L 444 142.5 L 442.5 144 L 439 142.5 L 439 106 Z " /><path fill="rgb(43,99,118)" stroke="rgb(43,99,118)" stroke-width="1" opacity="0.9529411764705882" d="M 597 106 Q 602.2 103.9 601 108.5 L 610.5 138 L 619 106 Q 623.6 104.8 625 107.5 L 632.5 137 L 642 107.5 L 643.5 106 L 647 106.5 L 635 144 L 630 144 L 630 141.5 L 621.5 113 L 614 142.5 L 612.5 144 Q 607.1 145.9 608 142.5 L 597 106 Z " /></svg>